<svg width="19" height="20" viewBox="0 0 19 20" fill="none" xmlns="http://www.w3.org/2000/svg">
<path d="M0.568265 2.72606C0.41823 2.58211 0.298448 2.40965 0.215939 2.21879C0.13343 2.02794 0.0898556 1.82253 0.0877711 1.61462C0.0856866 1.4067 0.125136 1.20046 0.203802 1.00799C0.282468 0.815522 0.398771 0.640695 0.545889 0.493762C0.693007 0.346829 0.867981 0.230747 1.06055 0.152324C1.25312 0.0738999 1.45941 0.0347124 1.66732 0.037059C1.87523 0.0394055 2.08059 0.0832388 2.27134 0.165989C2.46209 0.248739 2.63439 0.36874 2.77816 0.518956L3.38891 1.1302C4.69856 0.303934 6.25064 -0.051469 7.78934 0.122572C9.32804 0.296613 10.7615 0.989711 11.8535 2.08763L14.7094 4.94678L17.5094 4.94792C17.642 4.94797 17.7691 5.0007 17.8629 5.09451C17.9566 5.18831 18.0092 5.31551 18.0092 5.44812C17.999 8.46176 16.801 11.3499 14.6749 13.4858L13.5284 14.6323C12.4725 15.6882 11.2188 16.5255 9.83898 17.0965C8.45919 17.6675 6.98038 17.961 5.4871 17.9601C5.35449 17.96 5.22734 17.9073 5.13361 17.8135C5.03988 17.7197 4.98725 17.5925 4.98731 17.4598L4.98844 14.6639L2.13159 11.8047C1.49233 11.1689 0.986344 10.4119 0.643261 9.57813C0.300178 8.74434 0.126895 7.85048 0.133558 6.94889C0.129226 5.66842 0.493171 4.41371 1.18202 3.33431L0.568265 2.72606Z" fill="white"/>
<path d="M14.2319 15.3399L14.2979 15.274C14.5726 15.9676 14.5916 16.7363 14.3514 17.4426C14.1112 18.1489 13.6275 18.7467 12.9869 19.129C12.3463 19.5113 11.5906 19.6532 10.8549 19.5294C10.1193 19.4055 9.45167 19.0239 8.97162 18.4528C9.22565 18.3779 9.47968 18.303 9.72972 18.2111C11.423 17.596 12.96 16.6158 14.2319 15.3399Z" fill="white"/>
</svg>
