<svg width="20" height="14" viewBox="0 0 20 14" fill="none" xmlns="http://www.w3.org/2000/svg">
<path d="M0 8.7356H20V12.7586C20 12.949 19.8455 13.1034 19.6551 13.1034H0.344843C0.154414 13.1034 0 12.949 0 12.7586V8.7356Z" fill="#41479B"/>
<path d="M0.344843 0H19.6552C19.8456 0 20 0.154414 20 0.344843V4.3678H0V0.344843C0 0.154414 0.154414 0 0.344843 0Z" fill="#FF4B55"/>
<path d="M20 4.36768H0V8.73525H20V4.36768Z" fill="#F5F5F5"/>
<path d="M8.55135 4.48254H7.58585V5.58606H8.55135V4.48254Z" fill="#FF4B55"/>
<path d="M10.4828 4.48254H9.51733V5.58606H10.4828V4.48254Z" fill="#FF4B55"/>
<path d="M9.51687 5.58609H8.55136V6.6896H9.51687V5.58609Z" fill="#FF4B55"/>
<path d="M12.4132 4.48254H11.4477V5.58606H12.4132V4.48254Z" fill="#FF4B55"/>
<path d="M11.4484 5.58609H10.4829V6.6896H11.4484V5.58609Z" fill="#FF4B55"/>
<path d="M9.51693 4.48254H8.55142V5.58606H9.51693V4.48254Z" fill="#F5F5F5"/>
<path d="M11.4481 4.48254H10.4826V5.58606H11.4481V4.48254Z" fill="#F5F5F5"/>
<path d="M8.55178 5.58606H7.58627V6.68957H8.55178V5.58606Z" fill="#F5F5F5"/>
<path d="M10.4825 5.58606H9.517V6.68957H10.4825V5.58606Z" fill="#F5F5F5"/>
<path d="M12.4137 5.58606H11.4482V6.68957H12.4137V5.58606Z" fill="#F5F5F5"/>
<path d="M10.483 6.68964H9.51749V7.79315H10.483V6.68964Z" fill="#FF4B55"/>
<path d="M9.51742 7.79315H8.55191V8.89667H9.51742V7.79315Z" fill="#FF4B55"/>
<path d="M11.4486 7.79315H10.4831V8.89667H11.4486V7.79315Z" fill="#FF4B55"/>
<path d="M9.51693 6.68958H8.55142V7.79309H9.51693V6.68958Z" fill="#F5F5F5"/>
<path d="M11.4487 6.68958H10.4832V7.79309H11.4487V6.68958Z" fill="#F5F5F5"/>
<path d="M10.4831 7.79312H9.51758V8.89663H10.4831V7.79312Z" fill="#F5F5F5"/>
<path d="M12.4141 4.48279V7.58622C12.4141 8.9193 11.3334 10 10.0004 10C8.66728 10 7.58658 8.9193 7.58658 7.58622V4.48279H12.4141ZM12.5866 4.31036H12.4141H7.58658H7.41415V4.48279V7.58622C7.41415 9.01223 8.57431 10.1724 10.0004 10.1724C11.4264 10.1724 12.5866 9.01227 12.5866 7.58622V4.48279V4.31036Z" fill="#FF4B55"/>
<path d="M8.55144 7.79307V6.68964H7.58594V7.5862C7.58594 7.65608 7.59055 7.72471 7.59637 7.79311H8.55144V7.79307Z" fill="#FF4B55"/>
<path d="M12.4034 7.79309H11.4483V8.89653H12.0254C12.2349 8.57352 12.369 8.19786 12.4034 7.79309Z" fill="#F5F5F5"/>
<path d="M7.9748 8.89749H8.55191V7.7941H7.59683C7.63125 8.19882 7.76539 8.57449 7.9748 8.89749Z" fill="#F5F5F5"/>
<path d="M8.55185 9.51397C8.83286 9.72549 9.15993 9.879 9.51736 9.95154V8.89655H8.55185V9.51397Z" fill="#F5F5F5"/>
<path d="M10.4831 9.95154C10.8405 9.879 11.1676 9.72545 11.4486 9.51397V8.89655H10.4831V9.95154Z" fill="#F5F5F5"/>
<path d="M10.4829 8.89655H9.51743V9.95154C9.6734 9.98322 9.83485 10 10.0002 10C10.1655 10 10.327 9.98322 10.483 9.95154V8.89655H10.4829Z" fill="#FF4B55"/>
<path d="M8.25242 2.65683C8.04234 2.62433 7.82742 2.6009 7.60832 2.58734C7.43887 2.72683 7.27734 2.87226 7.12402 3.02289C7.27801 3.39457 7.43195 3.76624 7.58586 4.13792C7.89496 4.00992 8.21168 3.90746 8.53301 3.83066C8.43949 3.43937 8.34597 3.04808 8.25242 2.65683Z" fill="#4173CD"/>
<path d="M10.5861 2.47373C10.3973 2.37822 10.2018 2.2899 10.0001 2.20947C9.79832 2.28994 9.60281 2.37826 9.41406 2.47373C9.44543 2.87474 9.47684 3.27584 9.5082 3.67697C9.83562 3.65131 10.1646 3.65131 10.492 3.67697C10.5233 3.27588 10.5547 2.87482 10.5861 2.47373Z" fill="#4173CD"/>
<path d="M12.8754 3.02289C12.7221 2.8723 12.5606 2.72687 12.3911 2.58734C12.172 2.60086 11.9571 2.62433 11.747 2.65683C11.6535 3.04812 11.56 3.43937 11.4665 3.83062C11.7878 3.90746 12.1045 4.00988 12.4136 4.13789C12.5676 3.76621 12.7215 3.39453 12.8754 3.02289Z" fill="#4173CD"/>
<path d="M9.41395 2.47384C9.21262 2.40888 9.00551 2.35205 8.79309 2.30408C8.60567 2.41505 8.42547 2.53291 8.25278 2.65693C8.34629 3.04822 8.43985 3.43947 8.53344 3.83071C8.85477 3.75388 9.18067 3.70271 9.50813 3.67708C9.47672 3.27599 9.44531 2.87494 9.41395 2.47384Z" fill="#41479B"/>
<path d="M11.7475 2.65693C11.5748 2.53291 11.3946 2.41501 11.2072 2.30408C10.9948 2.35205 10.7876 2.40896 10.5863 2.47384C10.555 2.87486 10.5236 3.27595 10.4922 3.67708C10.8196 3.70267 11.1455 3.75388 11.4669 3.83071C11.5604 3.43947 11.654 3.04818 11.7475 2.65693Z" fill="#41479B"/>
<path d="M9.45166 2.9551C9.08662 2.98362 8.7233 3.04069 8.36506 3.12639C8.34635 3.04815 8.32764 2.96987 8.30893 2.89163C8.67944 2.80311 9.05522 2.74405 9.43279 2.71448C9.43912 2.79471 9.44541 2.87491 9.45166 2.9551Z" fill="#FF4B55"/>
<path d="M9.48917 3.43639C9.14921 3.46299 8.81082 3.51615 8.47718 3.59592C8.45843 3.51768 8.43976 3.43939 8.42105 3.36119C8.76695 3.27846 9.11785 3.22334 9.47035 3.1958C9.47663 3.27592 9.48289 3.35619 9.48917 3.43639Z" fill="#FF4B55"/>
<path d="M11.1457 3.51742C11.0615 3.50246 10.9771 3.48914 10.8925 3.4775C10.7533 3.45828 10.6497 3.34015 10.6618 3.20738C10.6738 3.07465 10.8068 2.97836 10.9582 2.99929C11.0491 3.01179 11.1397 3.02605 11.2301 3.04215C11.3808 3.06879 11.4784 3.2016 11.449 3.33144C11.4196 3.46156 11.2843 3.54183 11.1457 3.51742Z" fill="#FFE15A"/>
<path d="M12.5064 3.91493C12.1855 3.782 11.8566 3.67568 11.523 3.59587C11.5418 3.51763 11.5605 3.43935 11.5792 3.36115C11.9251 3.4438 12.2661 3.55411 12.5988 3.69193C12.568 3.76626 12.5373 3.8406 12.5064 3.91493Z" fill="#FF4B55"/>
<path d="M12.4204 3.19079C12.3863 3.28481 12.2713 3.32954 12.1626 3.29419C12.054 3.2588 11.9875 3.15552 12.015 3.05934C12.0425 2.96317 12.159 2.91227 12.2742 2.94974C12.3896 2.98712 12.4545 3.09677 12.4204 3.19079Z" fill="#FFE15A"/>
<path d="M7.98561 3.05934C8.01307 3.15558 7.94655 3.25891 7.83799 3.29418C7.72936 3.32933 7.61436 3.28461 7.58022 3.19078C7.54608 3.09672 7.61108 2.98711 7.72639 2.94977C7.84159 2.91238 7.95819 2.9632 7.98561 3.05934Z" fill="#FFE15A"/>
<path d="M9.94512 2.90123C9.94535 2.98119 9.87348 3.04631 9.78442 3.04904C9.69539 3.05189 9.61949 2.99119 9.61481 2.91154C9.61016 2.83185 9.68196 2.76287 9.77539 2.75986C9.86883 2.75693 9.94473 2.82127 9.94512 2.90123Z" fill="#FFE15A"/>
<path d="M10.386 2.91155C10.3812 2.99139 10.3053 3.0519 10.2164 3.04905C10.1273 3.04631 10.0555 2.9812 10.0557 2.90124C10.056 2.82135 10.132 2.75682 10.2254 2.75987C10.3188 2.76268 10.3906 2.83182 10.386 2.91155Z" fill="#FFE15A"/>
<path d="M10.1568 3.27355C10.1546 3.35351 10.0846 3.4164 10.0003 3.4164C9.91605 3.41636 9.84601 3.35355 9.84371 3.27355C9.84152 3.19383 9.91156 3.12687 10.0003 3.12711C10.089 3.12691 10.159 3.19379 10.1568 3.27355Z" fill="#FFE15A"/>
</svg>
