<svg width="22" height="20" viewBox="0 0 22 20" fill="none" xmlns="http://www.w3.org/2000/svg">
<path d="M21.736 9.46517L11.3679 0.144012C11.1543 -0.0480039 10.8344 -0.0480039 10.6208 0.144012L0.190248 9.52143C0.0148829 9.6793 -0.0465088 9.93093 0.0366316 10.1537C0.119497 10.3765 0.32955 10.5241 0.563829 10.5241H2.89727V19.4268C2.89727 19.7433 3.14971 20 3.46108 20H8.73911V12.2931C8.73911 11.9765 8.99156 11.7198 9.30293 11.7198H12.6858C12.9972 11.7198 13.2496 11.9765 13.2496 12.2931V20H18.5277C18.839 20 19.0915 19.7433 19.0915 19.4268V10.5241H21.4249C21.4285 10.5241 21.4323 10.5238 21.4362 10.5241C21.7476 10.5241 22 10.2674 22 9.95081C22 9.74619 21.8946 9.56649 21.736 9.46517Z" fill="#372546"/>
</svg>
