<svg width="16" height="21" viewBox="0 0 16 21" fill="none" xmlns="http://www.w3.org/2000/svg">
<path fill-rule="evenodd" clip-rule="evenodd" d="M4.95235 4.61952C7.08443 3.43281 9.27144 3.27934 11.288 3.833C11.3746 3.1393 11.4238 2.53433 11.806 1.69993C11.2995 2.07069 10.9747 2.49082 10.6021 2.94486L10.4765 1.01001L8.859 2.81977L7.7518 1L7.07081 3.03512L5.0913 1.62814L5.42443 3.58546C4.97001 3.20565 4.46306 2.82581 3.95447 2.61443C4.3452 3.13284 4.72543 3.84906 4.95235 4.61952Z" fill="#4B0033" stroke="#38003D" stroke-width="0.216566" stroke-linejoin="round"/>
<path fill-rule="evenodd" clip-rule="evenodd" d="M13.202 5.43964C12.638 4.9678 12.0713 4.55592 10.8263 4.24748C10.9389 4.4955 11.0322 4.8101 11.031 5.138C10.7096 4.79327 10.3198 4.36538 9.84344 4.11127C8.2704 3.90381 6.65257 4.30125 5.38524 4.94413C5.92256 5.00696 6.34594 5.42805 6.48873 5.89282C4.97113 4.82732 4.09981 6.36372 4.97861 7.89391C4.03433 7.44055 3.99031 6.33573 4.27806 5.60945C3.56913 6.15136 2.48569 7.19638 1.81051 8.61192L2.6771 8.73504C1.62979 9.97552 1.10235 11.7625 1 12.8128L2.41003 12.3527C1.9636 13.9806 2.32105 16.5145 2.89047 17.4396C3.7705 16.7426 4.47637 15.8703 5.20678 14.7633C5.66977 16.2358 5.5865 17.7677 5.22632 19.3297C7.28289 20.5018 9.84251 20.0268 11.5198 18.7539C11.5912 19.0554 11.6398 19.1968 11.7798 19.8522C13.8153 18.4326 14.5058 16.6959 14.7034 15.0121L15.3655 15.7488C16.2518 12.8666 15.7239 10.5244 14.1493 8.25579L14.0842 8.78492C13.9013 8.55396 13.6017 8.27285 13.4621 8.09631C13.4403 8.06864 13.4457 8.05296 13.4314 8.03048C13.5059 7.98471 13.6438 7.91964 13.68 7.8208C13.665 7.68324 13.5067 7.32844 13.3897 7.26241C13.0979 7.28992 12.8639 7.54677 12.862 7.64089C12.7104 7.4967 12.5672 7.33719 12.1252 7.17305C12.3235 7.37511 12.514 7.6853 12.6541 7.96072C12.9448 8.17546 13.4315 8.58715 13.7943 8.96242L13.7244 9.03344C13.3264 8.71931 12.2605 8.74604 11.6741 9.04411C11.3886 8.69966 11.058 8.31708 10.5949 7.8951C10.4822 7.7011 10.4718 7.35442 10.8307 7.05465C10.4343 7.0902 10.2693 7.26283 10.0826 7.42256C9.80514 7.2119 9.44224 6.99297 8.85384 6.82454C8.39278 6.9188 7.83649 7.21628 7.62215 7.47695C8.16012 7.76669 8.32433 7.85422 8.65092 7.87737C9.13029 7.91135 9.54733 7.80181 9.85354 7.99909C10.2336 8.33923 10.9456 8.97583 11.0466 9.26505C10.4313 8.90999 9.50971 9.09765 8.48526 9.04391C7.51656 8.92722 6.98273 8.2055 6.97262 7.62428L6.28414 7.51494C6.67141 6.97954 7.16174 6.74139 7.52372 6.61371L7.14573 6.2987C7.75113 5.77452 8.69275 5.35424 9.6511 5.27067C10.3154 5.60146 10.8845 5.96371 11.2749 6.2878C11.4513 5.99108 11.4771 5.66858 11.4988 5.45732C12.2561 5.80834 13.1017 6.40995 13.7203 7.0436C13.4722 6.58798 13.2842 6.06232 13.202 5.43964V5.43964ZM10.2432 12.5765C9.95264 12.0154 9.6682 11.3801 9.33454 10.846C9.97958 10.3806 10.5899 9.89836 11.6357 9.62903C11.8566 9.81363 12.1816 10.0351 12.6454 10.2049L12.6447 11.3141C11.9871 11.7677 11.3298 12.5069 10.2432 12.5765ZM12.4331 12.3726L13.2295 12.37C13.3644 12.4976 13.6454 12.9306 13.6656 13.268C13.603 13.7466 13.2344 14.6265 12.5865 14.9624C12.607 14.555 12.5605 14.0275 12.4792 13.7339C12.1095 14.1531 11.5077 14.3417 11.1975 14.4111C11.0685 14.0649 10.8571 13.6826 10.6508 13.3695C11.2056 13.2535 11.9076 12.8434 12.4331 12.3726ZM13.9874 9.67333C14.5118 10.7923 14.399 11.8653 14.0309 12.4152C13.8517 12.0022 13.5075 11.5888 13.2155 11.3286L13.2274 10.242C13.5592 10.0622 13.7854 9.87347 13.9874 9.67333Z" fill="#4B0033" stroke="#38003D" stroke-width="0.216566" stroke-linejoin="round"/>
</svg>
