<svg width="17" height="34" viewBox="0 0 17 34" fill="none" xmlns="http://www.w3.org/2000/svg">
<path fill-rule="evenodd" clip-rule="evenodd" d="M10.7129 25.8564C10.5987 25.7944 10.5202 25.6705 10.4488 25.5387C9.88498 24.454 9.85643 22.974 9.65659 21.5251C9.91353 21.7343 10.3774 22.0055 10.7985 21.8195C10.0206 21.1531 9.43534 20.0374 9.65659 18.4799C8.87864 17.7051 7.90085 16.8838 7.40838 15.7758C7.23709 15.4038 7.05866 14.9002 7.2014 14.443C7.59395 15.7215 8.26484 16.5351 9.13558 17.4029C10.0563 18.325 11.1411 19.278 10.977 21.2849C11.2196 21.1531 11.2553 20.758 11.2767 20.4558C11.4552 17.9066 9.66373 16.938 8.52178 15.7758C8.15065 15.4116 7.77951 14.9544 7.67246 14.412C8.04359 14.6677 8.41472 15.1559 8.93573 15.4891C9.75651 16.0315 10.8556 16.2019 11.6621 15.6828C11.8905 15.5278 12.2117 15.3573 12.2474 15.0784C11.3981 15.1249 10.7486 14.9932 10.1419 14.7995C9.7351 14.6677 9.27832 14.5205 9.05707 14.2261C9.75651 14.1563 10.3346 13.9549 10.5202 13.3273C10.0705 13.3428 9.44961 13.4357 9.14271 13.2033C9.96349 13.0406 10.7914 12.9011 10.9841 12.0488C10.3846 12.072 9.78506 12.4207 9.17126 12.2115C9.94921 11.8938 10.9841 11.8396 11.134 10.84C10.5273 10.8788 9.83502 11.4289 9.17126 11.2894C9.97062 10.8633 11.1839 10.716 11.1697 9.50729C10.6843 9.56928 10.1205 10.1272 9.60663 10.0497C11.7906 8.60848 13.9674 6.75661 15.4091 4.32361C16.0372 3.27758 17.1863 1.22425 16.0515 0C16.0229 0 15.9944 0 15.9658 0C15.9658 0.0464904 15.923 0.0464904 15.9373 0.0929809C15.7874 1.78213 15.2093 3.34731 14.4956 4.54831C13.8104 5.72607 12.9825 6.74886 12.0404 7.60119C11.0769 8.46901 9.93494 9.15861 8.99283 10.0187C8.46468 10.4836 8.19347 10.9795 7.93653 11.7311C7.68673 12.4672 7.40124 13.1413 6.91592 13.4745C6.75176 13.583 6.5091 13.7767 6.26643 13.6372C6.46627 13.3892 6.68753 13.304 6.82313 13.1335C7.08721 12.7849 7.24423 12.1727 7.41552 11.5761C7.57967 11.0105 7.77238 10.4836 8.02931 10.0264C8.95001 8.35278 10.9199 7.16727 12.1546 5.63309C12.7755 4.85825 13.4821 3.89745 13.5606 2.70419C13.632 1.74339 13.268 1.34822 12.6257 1.17776C12.6685 1.50319 12.8826 1.78988 12.8255 2.31677C12.7327 3.37056 11.9476 4.53282 11.3981 5.27666C10.7843 6.09025 10.0349 6.8031 9.28546 7.50046C8.58601 8.15907 7.71528 8.87967 7.2585 9.83273C7.04439 10.2744 6.85882 10.995 6.73035 11.5141C6.65898 11.8318 6.5091 13.0871 6.09514 13.0638C5.85248 13.0561 5.73828 12.4672 5.73828 12.041C5.76683 9.89471 7.61536 8.94941 8.2577 7.53145C8.32194 7.39973 8.39331 7.13628 8.40045 6.95807C8.47182 6.22197 8.11496 5.96627 7.8152 5.64859C8.66452 5.77256 9.77792 5.71057 9.72082 4.75752C9.57808 4.81176 9.49243 4.98222 9.30687 5.05196C8.07214 5.48587 5.96667 3.43254 5.06739 4.63355C4.9532 4.69553 5.12449 4.88924 5.0317 4.92799C4.80331 4.92799 4.56779 4.92024 4.38222 4.95123C4.32512 4.77302 4.26089 4.60255 4.21093 4.41659C4.0896 4.47083 3.91117 4.45533 3.79697 4.50957C3.89689 4.64904 3.98968 4.78077 4.00395 5.02097C3.54717 5.15269 3.11894 5.32315 3.04043 5.88104C3.34019 5.77256 3.73274 5.59435 4.06105 5.62534C4.06105 5.85779 4.01823 6.0515 3.93972 6.19098C3.86121 6.29171 3.5329 6.13674 3.50435 6.28396C3.48294 6.52416 3.76129 6.43892 3.79697 6.60164C3.71133 6.79535 3.61141 6.97356 3.4758 7.10529C3.04757 6.5474 2.52656 7.08204 2.06978 7.20602C1.96272 7.25251 1.86994 7.20602 1.77715 7.2835C2.14115 7.96536 2.81918 7.29125 3.35447 7.25251C3.19745 7.62443 2.40523 7.7484 2.27676 8.20556C2.17684 8.53874 2.31958 8.93391 2.74781 8.93391C2.64075 8.52325 3.14035 8.36053 3.24741 8.04284C3.2831 7.93437 3.21173 7.78715 3.24741 7.69417C3.30451 7.53145 3.48294 7.55469 3.56858 7.43847C3.67564 8.31404 4.98174 8.26755 5.01029 7.34549C4.81759 7.43072 4.75335 7.58569 4.57492 7.57019C4.34654 7.5392 4.17524 7.0433 3.75415 7.22151C3.93258 7.02005 4.0325 6.72562 4.21807 6.51641C4.91037 6.41568 5.96667 6.05925 6.23789 6.86509C6.30212 7.05105 6.29498 7.36873 6.2022 7.60119C6.00236 8.14357 5.37429 8.63172 4.91751 9.01914C3.5329 10.2356 1.73433 11.5451 1.57018 13.9549C1.42743 16.1399 2.49087 17.3952 3.71133 18.1855C4.87469 18.9371 6.18079 19.278 7.72955 19.557C7.99363 20.1768 8.07928 21.2461 7.8152 21.9435C8.13637 21.8737 8.3148 21.4863 8.52178 21.4011C8.67166 22.6563 8.93573 23.7876 9.30687 24.7717C9.43534 25.0971 9.65659 25.3915 9.65659 25.7557C9.09275 25.9494 7.91512 24.9654 7.75096 25.9107C7.22995 25.7712 6.85168 26.3291 7.2014 26.6468C7.3727 26.4298 7.5654 26.2361 7.95794 26.2671C7.701 26.4221 7.48689 27.0419 8.02218 27.0574C8.05786 26.9645 8.09355 26.856 8.16492 26.7707C8.6217 26.2593 10.7058 26.3136 11.5622 26.5228C11.7549 26.5615 11.8977 26.825 11.9976 26.8715C12.1546 26.7242 12.4187 26.6003 12.3544 26.2748C12.2331 25.6782 11.1839 26.1276 10.7129 25.8564ZM3.32592 25.1126C3.36874 24.7562 3.31878 24.268 3.65423 24.0433C3.79697 23.9503 3.93972 24.0046 4.23948 23.9658C4.51783 23.9271 4.31799 23.5009 4.63202 23.222C4.7819 23.0902 4.97461 23.0825 5.13162 23.0438C4.85327 22.7416 4.51069 22.5091 4.12528 22.3851C4.10387 22.3851 4.08246 22.3929 4.06819 22.4006C3.67564 22.5169 3.2831 22.8191 2.98334 23.2065C2.68358 23.5939 2.48373 24.0588 2.46946 24.5082C2.45519 25.1668 2.862 25.4845 3.32592 25.1126ZM4.02536 27.3751C4.04677 27.3596 4.07532 27.3441 4.09673 27.3286C4.32512 27.1504 4.26089 26.7397 4.10387 26.5383C3.86121 26.5228 3.52576 26.8482 2.9762 26.9412C2.45519 27.0264 2.29103 26.8637 1.85566 26.7862C2.27676 27.1969 2.83346 27.4449 3.44725 27.4449C3.64709 27.4603 3.8398 27.4294 4.02536 27.3751ZM5.31005 23.2607C5.18158 23.284 5.06739 23.2995 4.96033 23.3304C4.36795 23.5242 4.62489 24.0588 4.93178 24.4075C5.53131 25.0816 5.3386 25.6627 5.53131 26.0424C5.55272 26.0269 5.57413 26.0036 5.59554 25.9727C5.74542 25.6395 5.82393 25.2598 5.82393 24.8646C5.83107 24.2603 5.63836 23.7024 5.31005 23.2607ZM5.3386 26.4376C5.36715 26.3213 5.35288 26.1741 5.32433 25.8564C5.26723 25.2133 4.87469 24.485 4.46073 24.2758C4.17524 24.1285 3.73274 24.1208 3.6685 24.5082C3.57572 25.0893 3.73988 25.0583 3.99681 25.345C4.26089 25.6317 4.16811 25.8719 4.26089 26.3368C4.29658 26.5073 4.40363 26.5848 4.43932 26.794C4.46073 26.9644 4.41077 27.1039 4.37508 27.2511C4.75335 27.0807 5.0888 26.794 5.3386 26.4376ZM1.07771 24.5779C1.14195 24.7871 1.32751 24.9111 1.72006 24.8569C2.60507 24.7329 1.90562 23.5939 3.50435 22.5479C3.60427 22.4859 3.76843 22.4084 3.8398 22.3077C3.71133 22.2844 3.58286 22.2767 3.45439 22.2767C2.21966 22.2844 1.20618 23.284 1.07771 24.5779ZM2.75495 25.469C2.40523 25.3373 2.4195 25.1591 2.21252 24.9034C1.99841 24.9731 1.87708 25.1281 1.613 25.1281C1.33465 25.1203 1.23473 24.9576 1.06344 24.9266C1.07771 25.4845 1.249 25.9959 1.53449 26.4143C1.57731 26.4531 1.62014 26.484 1.66296 26.4995C1.9199 26.6313 2.25535 26.701 2.59079 26.701C2.92624 26.7088 4.01109 26.5615 4.01109 26.0656C4.01109 25.8099 3.80411 25.4458 3.61141 25.3605C3.38302 25.2675 3.14035 25.6162 2.75495 25.469ZM10.249 31.0246C10.249 29.5524 11.0555 28.6536 12.2831 28.6536C12.8612 28.6536 13.4036 28.8241 13.8318 29.165L13.839 28.1112C13.3322 27.9795 12.8826 27.9098 12.4829 27.9098C11.605 27.9098 10.8699 28.1655 10.2847 28.6614C9.61376 29.2347 9.24263 30.0793 9.24263 31.0556C9.24263 32.0087 9.59949 32.8222 10.2632 33.3646C10.7628 33.783 11.3695 34 12.0618 34C12.6185 34 13.2609 33.8528 13.946 33.5661L13.9674 32.5588C13.3965 33.0315 12.8326 33.2639 12.226 33.2639C11.0341 33.2639 10.249 32.3961 10.249 31.0246ZM1.33465 22.7881C1.57731 22.6951 2.45519 21.5561 4.11101 21.897C5.75256 22.2302 5.77397 23.3537 6.09514 23.7179C6.32353 23.5009 6.30926 23.0438 6.16651 22.7493C6.04518 22.5014 5.81679 22.2999 5.66691 22.0365C5.30292 21.4166 5.9524 20.4403 6.28785 20.3551C6.40204 20.5333 6.46627 20.6805 6.63043 20.8355C6.77317 20.9672 7.11576 21.4243 7.36556 21.4708L7.0087 19.7584C6.67325 19.6887 5.96667 19.5802 5.6455 19.4175C5.41711 19.3013 5.24582 19.0766 5.01743 19.309C4.91751 19.4098 4.56779 19.7119 4.5321 19.7817C4.68198 19.8747 5.17445 19.8592 5.42425 19.9986C5.36001 20.3318 4.80331 20.789 4.50355 20.9362C4.03964 21.1686 3.44012 21.1531 2.89769 21.1144C2.44091 21.0834 1.90562 20.9362 1.64869 21.5096C1.57731 21.68 1.67723 21.742 1.54877 21.9125C1.38461 22.1294 1.01348 22.3077 1.33465 22.7881ZM8.40045 29.3355C8.20061 29.0875 7.95081 28.9016 7.67246 28.7853C7.3156 28.6459 6.88737 28.5839 6.48055 28.6149C6.46627 29.2657 6.45914 29.9243 6.46627 30.5752L7.77951 29.9863L7.74383 31.5438C7.43693 31.3733 6.95874 31.1951 6.45914 31.1641C6.45914 31.4818 6.45914 31.7995 6.45914 32.1094C6.47341 32.6983 6.452 33.3569 6.91592 33.7598C6.90878 33.8063 6.88737 33.845 6.85882 33.8838C6.75176 33.8915 6.63757 33.8915 6.53765 33.8915V33.8993H5.203C5.21013 33.876 5.22441 33.8528 5.23154 33.8295C5.22441 33.8063 5.21727 33.7908 5.203 33.7753C5.22441 33.7521 5.24582 33.7288 5.26723 33.7056C5.3957 33.2871 5.4528 32.83 5.4528 32.3418V29.4749C5.4528 29.0488 5.41711 28.6614 5.32433 28.2894C5.27437 28.2042 5.21727 28.1267 5.13876 28.057C5.1459 28.026 5.16017 27.9872 5.18158 27.9562H5.22441C5.21727 27.9407 5.21727 27.933 5.21013 27.9175H8.41472C8.40758 28.4212 8.429 28.8938 8.48609 29.2735C8.45041 29.3045 8.429 29.3277 8.40045 29.3355ZM3.26169 32.4891C3.06185 32.7293 2.81204 32.923 2.53369 33.0392C2.17684 33.1787 1.74861 33.2407 1.34892 33.2097C1.32038 32.0474 1.33465 30.8774 1.33465 29.7151C1.34892 29.1263 1.32751 28.4676 1.79143 28.0647C1.78429 28.0182 1.76288 27.9795 1.73433 27.933C1.16336 27.9253 0.699443 27.933 0.157018 27.9175C0.107058 27.9407 0.0927832 28.0027 0.0785089 28.0415C0.206978 28.1655 0.314035 28.3204 0.342584 28.5064C0.421093 28.8396 0.413956 29.2425 0.413956 29.6067C0.406819 30.6372 0.42823 31.6677 0.385407 32.706C0.363996 33.0934 0.292624 33.5041 0 33.7675C0.00713717 33.7985 0.0214115 33.845 0.042823 33.876C0.999204 33.876 1.95558 33.9148 2.9191 33.8915C3.06898 33.4499 3.23314 33.0082 3.35447 32.5588C3.31878 32.5201 3.29023 32.4968 3.26169 32.4891ZM3.96113 32.799C4.25375 32.799 4.48928 33.0547 4.48928 33.3724C4.48928 33.6901 4.25375 33.9458 3.96113 33.9458C3.67564 33.9458 3.44012 33.6901 3.44012 33.3724C3.44012 33.0547 3.67564 32.799 3.96113 32.799ZM7.90798 32.799C8.20061 32.799 8.43613 33.0547 8.43613 33.3724C8.43613 33.6901 8.20061 33.9458 7.90798 33.9458C7.6225 33.9458 7.37983 33.6901 7.37983 33.3724C7.37983 33.0547 7.6225 32.799 7.90798 32.799ZM15.0594 32.799C15.352 32.799 15.5876 33.0547 15.5876 33.3724C15.5876 33.6901 15.352 33.9458 15.0594 33.9458C14.7668 33.9458 14.5384 33.6901 14.5384 33.3724C14.5384 33.0547 14.7668 32.799 15.0594 32.799ZM11.4123 9.29034C11.5551 9.59253 11.5123 10.0729 11.3552 10.3131C13.0396 9.27484 14.6954 8.08933 15.8088 6.46217C16.18 5.91978 16.6225 5.29216 16.6582 4.52507C16.6367 4.52507 16.6153 4.52507 16.6011 4.52507C15.1593 6.42343 13.4464 8.02735 11.4123 9.29034ZM13.7319 7.12078C14.3814 6.65588 15.0166 5.98952 15.6589 5.25342C16.3298 4.47858 17.329 3.4093 16.8937 2.03783C16.8509 2.03008 16.8509 1.99134 16.808 1.99909C16.1871 3.85096 15.2307 5.29991 14.1102 6.5474C13.9674 6.71012 13.7319 6.86509 13.7319 7.12078ZM9.10703 15.8067C9.07134 15.8067 9.04279 15.8067 9.01424 15.8067C9.02138 15.8532 9.01424 15.8997 9.04993 15.9075C9.82074 16.6591 10.8913 17.3564 11.6264 18.387C12.5471 19.6732 13.2965 21.5638 12.7113 23.5397C13.0396 23.2375 13.2751 22.7493 13.4464 22.2922C13.6249 21.8118 13.7676 21.2151 13.7676 20.572C13.7819 17.4029 11.1768 16.6978 9.10703 15.8067ZM12.9111 13.8387C12.9111 13.7767 12.8826 13.7534 12.8469 13.7379C12.2117 14.1331 11.5337 14.4663 10.6487 14.5902C10.9627 14.722 11.8406 14.9079 12.2617 14.722C12.6042 14.5825 12.6899 14.0479 12.9111 13.8387ZM10.8057 13.2963C10.8485 13.9704 10.4203 14.1331 10.0991 14.412C11.0341 14.35 11.8191 13.9781 12.4401 13.552C13.061 13.1335 13.7176 12.6376 13.9888 11.8396C13.9674 11.8396 13.946 11.8396 13.9318 11.8396C13.0539 12.4982 12.0832 13.0638 10.8057 13.2963ZM11.241 11.9248C11.2625 12.1418 11.2339 12.3665 11.1554 12.5602C11.0626 12.7539 10.8057 12.8546 10.8842 13.0018C11.7763 12.7694 12.5614 12.3432 13.2323 11.8318C13.8675 11.3359 14.5455 10.7238 14.7525 9.76299C14.7311 9.76299 14.7097 9.76299 14.6883 9.76299C13.7176 10.6773 12.5971 11.4211 11.241 11.9248ZM11.4123 10.6231C11.5622 11.0647 11.2767 11.4366 11.241 11.6768C12.6471 11.0337 13.946 10.1039 14.8667 8.91067C15.1665 8.53099 15.5947 8.05059 15.4877 7.44622C14.3172 8.70921 13.0111 9.81723 11.4123 10.6231ZM9.39965 8.80994C9.14985 9.05014 8.82154 9.25934 8.72162 9.63902C9.04993 9.59253 9.28546 9.28259 9.54953 9.06563C10.9698 7.91112 12.3116 6.97356 13.3822 5.43163C13.9175 4.65679 14.8096 3.23883 13.9674 2.28578C13.946 2.28578 13.9246 2.28578 13.9032 2.28578C13.9032 2.31677 13.9032 2.35552 13.9032 2.37876C13.9246 3.41705 13.4892 4.23063 13.0253 4.95123C12.0261 6.53965 10.6487 7.60118 9.39965 8.80994ZM4.33226 6.17548C4.38936 6.01276 4.3965 5.78806 4.44646 5.6021C4.70339 5.6021 4.96747 5.59435 5.11735 5.70283C5.11021 6.12899 4.63916 6.05925 4.33226 6.17548ZM3.62568 13.9626C3.50435 12.4517 4.20379 11.2352 5.06739 10.4991C5.10308 10.4913 5.11735 10.5068 5.11735 10.5301C4.72481 11.3902 4.26089 12.134 4.33226 13.459C4.3965 14.8769 5.06025 16.0005 5.82393 16.7366C6.08087 16.9845 6.43773 17.124 6.61616 17.4417C5.1459 16.938 3.77556 15.861 3.62568 13.9626ZM5.5884 5.31541C5.5884 5.23017 5.5884 5.14494 5.5884 5.06746C5.93812 5.08295 6.23788 5.16044 6.52337 5.25342C6.27357 5.33865 5.80252 5.55561 5.5884 5.31541Z" fill="#D71920"/>
</svg>
