<svg width="44" height="44" viewBox="0 0 44 44" fill="none" xmlns="http://www.w3.org/2000/svg">
<path d="M22 4.4C31.68 4.4 39.6 12.32 39.6 22C39.6 31.68 31.68 39.6 22 39.6C12.32 39.6 4.4 31.68 4.4 22C4.4 12.32 12.32 4.4 22 4.4ZM22 0C9.9 0 0 9.9 0 22C0 34.1 9.9 44 22 44C34.1 44 44 34.1 44 22C44 9.9 34.1 0 22 0Z" fill="white"/>
<path d="M16.72 30.36L13.2 20.02L22 13.64L30.8 20.02L27.28 30.36H16.72Z" fill="#15BE65"/>
<path d="M26.1799 0.880005L28.8199 5.50001L21.9999 8.36001L15.1799 5.50001L17.8199 0.880005H26.1799Z" fill="white"/>
<path d="M3.3 11.44L8.58001 10.56L9.02 17.82L4.18 23.32L0.660004 19.36L3.3 11.44Z" fill="white"/>
<path d="M6.16 36.52L6.82 31.24L14.08 33L17.82 39.38L12.98 41.58L6.16 36.52Z" fill="white"/>
<path d="M31.02 41.58L26.18 39.38L29.92 33L37.18 31.24L37.84 36.52L31.02 41.58Z" fill="white"/>
<path d="M43.3401 19.36L39.8201 23.32L34.9801 17.82L35.4201 10.56L40.7001 11.44L43.3401 19.36Z" fill="white"/>
</svg>
