<svg width="30" height="30" viewBox="0 0 30 30" fill="none" xmlns="http://www.w3.org/2000/svg">
<path d="M28.7714 14.9999C28.7714 18.6507 27.3152 22.1559 24.7357 24.7354C22.1562 27.3149 18.651 28.771 15.0002 28.771C11.3494 28.771 7.84416 27.3149 5.26466 24.7354C2.68517 22.1559 1.229 18.6507 1.229 14.9999C1.229 11.3491 2.68517 7.84385 5.26466 5.26436C7.84416 2.68486 11.3494 1.2287 15.0002 1.2287C18.651 1.2287 22.1562 2.68486 24.7357 5.26436C27.3152 7.84385 28.7714 11.3491 28.7714 14.9999Z" fill="white"/>
<path d="M28.7714 14.9999C28.7714 18.6507 27.3152 22.1559 24.7357 24.7354C22.1562 27.3149 18.651 28.771 15.0002 28.771C11.3494 28.771 7.84416 27.3149 5.26466 24.7354C2.68517 22.1559 1.229 18.6507 1.229 14.9999C1.229 11.3491 2.68517 7.84385 5.26466 5.26436C7.84416 2.68486 11.3494 1.2287 15.0002 1.2287C18.651 1.2287 22.1562 2.68486 24.7357 5.26436C27.3152 7.84385 28.7714 11.3491 28.7714 14.9999Z" stroke="#FF0000" stroke-width="0.397605"/>
<path d="M15 1C11.2868 1 7.71917 2.47697 5.09807 5.09807C2.46657 7.72957 1 11.2868 1 15C1 18.7132 2.47697 22.2808 5.09807 24.9019C7.72957 27.523 11.2868 29 15 29C18.7132 29 22.2808 27.523 24.9019 24.9019C27.5334 22.2704 29 18.7132 29 15C29 11.2868 27.523 7.71917 24.9019 5.09807C22.2808 2.47697 18.7132 1 15 1ZM15 1.45765C18.5884 1.45765 22.0312 2.88262 24.5795 5.42051C27.1174 7.9584 28.5424 11.4012 28.5424 15C28.5424 18.5884 27.1174 22.0312 24.5795 24.5795C22.0416 27.1174 18.5988 28.5424 15 28.5424C11.4116 28.5424 7.9688 27.1174 5.42051 24.5795C2.88262 22.0416 1.45765 18.5988 1.45765 15C1.45765 11.4116 2.88262 7.9688 5.42051 5.42051C7.9688 2.88262 11.4116 1.45765 15 1.45765Z" fill="#002E60"/>
<path d="M15 1C11.2868 1 7.71917 2.47697 5.09807 5.09807C2.46657 7.72957 1 11.2868 1 15C1 18.7132 2.47697 22.2808 5.09807 24.9019C7.72957 27.523 11.2868 29 15 29C18.7132 29 22.2808 27.523 24.9019 24.9019C27.5334 22.2704 29 18.7132 29 15C29 11.2868 27.523 7.71917 24.9019 5.09807C22.2808 2.47697 18.7132 1 15 1ZM15 1.45765C18.5884 1.45765 22.0312 2.88262 24.5795 5.42051C27.1174 7.9584 28.5424 11.4012 28.5424 15C28.5424 18.5884 27.1174 22.0312 24.5795 24.5795C22.0416 27.1174 18.5988 28.5424 15 28.5424C11.4116 28.5424 7.9688 27.1174 5.42051 24.5795C2.88262 22.0416 1.45765 18.5988 1.45765 15C1.45765 11.4116 2.88262 7.9688 5.42051 5.42051C7.9688 2.88262 11.4116 1.45765 15 1.45765Z" stroke="#002E60" stroke-width="0.954499"/>
<path d="M15 1C11.2868 1 7.71917 2.47697 5.09807 5.09807C2.46657 7.72957 1 11.2868 1 15C1 18.7132 2.47697 22.2808 5.09807 24.9019C7.72957 27.523 11.2868 29 15 29C18.7132 29 22.2808 27.523 24.9019 24.9019C27.5334 22.2704 29 18.7132 29 15C29 11.2868 27.523 7.71917 24.9019 5.09807C22.2808 2.47697 18.7132 1 15 1ZM15 1.45765C18.5884 1.45765 22.0312 2.88262 24.5795 5.42051C27.1174 7.9584 28.5424 11.4012 28.5424 15C28.5424 18.5884 27.1174 22.0312 24.5795 24.5795C22.0416 27.1174 18.5988 28.5424 15 28.5424C11.4116 28.5424 7.9688 27.1174 5.42051 24.5795C2.88262 22.0416 1.45765 18.5988 1.45765 15C1.45765 11.4116 2.88262 7.9688 5.42051 5.42051C7.9688 2.88262 11.4116 1.45765 15 1.45765Z" fill="#7BB1DD"/>
<path d="M23.7057 15.0519C23.7057 17.3505 22.7904 19.5556 21.1678 21.1782C19.5452 22.8008 17.3402 23.7161 15.0415 23.7161C12.7428 23.7161 10.5378 22.8008 8.91521 21.1782C7.29262 19.5556 6.37732 17.3505 6.37732 15.0519C6.37732 12.7532 7.29262 10.5482 8.91521 8.92558C10.5378 7.303 12.7428 6.3877 15.0415 6.3877C17.3402 6.3877 19.5452 7.303 21.1678 8.92558C22.7904 10.5482 23.7057 12.7532 23.7057 15.0519Z" stroke="#002E60" stroke-width="0.441789"/>
<path d="M23.1016 15.0417C23.1016 17.1844 22.2487 19.2438 20.7301 20.7624C19.2116 22.2809 17.1521 23.1338 15.0095 23.1338C12.8668 23.1338 10.8074 22.2809 9.28883 20.7624C7.77026 19.2438 6.91736 17.1844 6.91736 15.0417C6.91736 12.8991 7.77026 10.8396 9.28883 9.32105C10.8074 7.80248 12.8668 6.94958 15.0095 6.94958C17.1521 6.94958 19.2116 7.80248 20.7301 9.32105C22.2487 10.8396 23.1016 12.8991 23.1016 15.0417Z" fill="#7BB1DD"/>
<path fill-rule="evenodd" clip-rule="evenodd" d="M8.32251 8.35367C7.74005 10.8188 7.74005 13.0342 7.76085 14.5528C7.71924 21.4488 12.8262 23.5914 14.9897 24.2467C17.1531 23.5914 22.2601 21.4488 22.2185 14.5528C22.2393 13.0342 22.2393 10.8188 21.6568 8.35367C18.3077 7.7712 16.269 7.82321 14.9897 7.81281C13.7103 7.82321 11.6821 7.7712 8.32251 8.35367Z" fill="#002E60"/>
<path fill-rule="evenodd" clip-rule="evenodd" d="M9.0189 8.8426C8.65485 10.4756 8.46763 11.9422 8.39482 13.1695C8.36362 14.5009 8.35322 15.853 8.56124 17.0491C8.67566 17.6732 8.85248 18.3285 9.18532 19.0046C9.88219 20.3151 10.8807 21.4696 11.7856 22.0833C12.9817 22.9986 14.2195 23.4979 14.9996 23.7475C15.7797 23.4979 17.007 22.9986 18.2135 22.0833C19.1185 21.4696 20.117 20.3047 20.8138 19.0046C21.1467 18.3285 21.3339 17.6732 21.4379 17.0491C21.6459 15.853 21.6355 14.5009 21.6043 13.1695C21.5315 11.9422 21.3443 10.4756 20.9803 8.8426C17.9743 8.29134 16.1541 8.34335 14.9996 8.33295C13.845 8.34335 12.0248 8.29134 9.0189 8.8426Z" fill="#FFBB59"/>
<path d="M12.9917 25.37C12.9605 25.3492 12.8981 25.2763 12.8461 25.2451C12.3572 24.9331 11.7852 25.2347 11.754 25.8276C11.7332 26.1917 12.0036 26.4933 12.2948 26.5557C12.5965 26.6077 12.8149 26.4725 13.0229 26.2957L13.335 26.6181C13.1789 26.7845 12.9813 26.9405 12.6381 27.0133C12.5757 27.0237 12.4821 27.0342 12.3781 27.0342C11.7332 26.9717 11.3691 26.6285 11.2651 26.0876C11.2027 25.7964 11.2547 25.4948 11.4107 25.2347C11.598 24.9331 11.8684 24.7563 12.222 24.6835C12.6381 24.6003 13.0645 24.7355 13.3246 25.0163L12.9917 25.37Z" fill="#002E60"/>
<path d="M14.334 24.6834H13.814V26.9717H14.334V24.6834Z" fill="#002E60"/>
<path d="M16.6951 25.1619H15.9982V26.9717H15.4781V25.1619H14.7812V24.6834H16.6951V25.1619Z" fill="#002E60"/>
<path d="M19.1713 24.6834L18.2768 26.0564V26.9717H17.7775V26.0564L16.9038 24.6834H17.4967L18.0375 25.6195L18.5888 24.6834H19.1713Z" fill="#002E60"/>
<path fill-rule="evenodd" clip-rule="evenodd" d="M6.18039 11.0267L5.95157 11.4532L3.97534 10.4235L4.22497 9.95543L5.3483 9.88262L4.77623 8.89451L5.01546 8.42645L7.00209 9.47697L6.77326 9.90342L5.46271 9.21694L6.03478 10.2467L4.88024 10.3611L6.18039 11.0267Z" fill="#002E60"/>
<path d="M8.86356 7.40722L8.49952 7.78166L7.98986 7.58404L7.33458 8.28092L7.56341 8.78018L7.22017 9.13382L6.23206 6.88716L6.54409 6.55432L8.86356 7.40722ZM7.56341 7.41762L6.81452 7.12639L7.14736 7.85447L7.56341 7.41762Z" fill="#002E60"/>
<path fill-rule="evenodd" clip-rule="evenodd" d="M9.1863 7.16809L8.02136 5.26467L8.40621 5.01504L10.0288 5.65991L9.31111 4.47418L9.72716 4.22455L10.8817 6.13837L10.528 6.35679L8.85346 5.70152L9.60234 6.91846L9.1863 7.16809Z" fill="#002E60"/>
<path d="M12.5664 3.94356C12.5352 3.93316 12.452 3.88116 12.3896 3.86035C11.8487 3.70434 11.3807 4.14119 11.5159 4.70285C11.5991 5.04609 11.9319 5.26451 12.2232 5.23331C12.5248 5.20211 12.6912 5.01488 12.8368 4.79646L13.2113 5.01489C13.1073 5.21251 12.972 5.42053 12.66 5.57655C12.5976 5.60775 12.5248 5.63896 12.4104 5.65976C11.7863 5.77417 11.3495 5.55575 11.0998 5.06689C10.9646 4.80686 10.923 4.50523 11.0062 4.22439C11.0998 3.89156 11.3079 3.65233 11.6199 3.48591C11.9943 3.29869 12.4312 3.30909 12.7536 3.49631L12.5664 3.94356Z" fill="#002E60"/>
<path d="M22.7268 6.40857L22.186 5.99252L21.1043 7.41749L20.6986 7.11586L21.7907 5.70129L21.2499 5.28525L21.5307 4.9212L23.0077 6.05493L22.7268 6.40857Z" fill="#002E60"/>
<path fill-rule="evenodd" clip-rule="evenodd" d="M13.7319 3.06995L13.7839 5.30621L14.2624 5.29581L14.2416 4.3909L15.1673 4.3701L15.1881 5.275L15.6666 5.2646L15.625 3.01794L15.1257 3.02835L15.1465 3.92285L14.2312 3.94365L14.2104 3.05955L13.7319 3.06995Z" fill="#002E60"/>
<path fill-rule="evenodd" clip-rule="evenodd" d="M16.8294 3.16345L18.4832 3.52749L18.3792 3.95394L17.2142 3.69391L17.1102 4.15157L18.0776 4.34919L17.8487 4.74443L17.0166 4.56761L16.9126 5.03567L18.1088 5.2957L18.0151 5.71174L16.351 5.3581L16.8294 3.16345Z" fill="#002E60"/>
<path fill-rule="evenodd" clip-rule="evenodd" d="M19.8372 5.03573C19.546 4.8173 19.546 4.69249 19.6188 4.58847C19.6916 4.50526 19.7852 4.50526 19.8788 4.53647C20.0348 4.58847 20.1596 4.69249 20.2532 4.8173C20.3052 4.87971 20.3468 4.95252 20.3884 5.01492L20.7733 4.7757C20.7109 4.66128 20.5549 4.34925 20.0972 4.15163C19.8788 4.05802 19.3587 3.9644 19.1299 4.50527C19.0363 4.73409 19.0779 4.87971 19.1299 4.98372C19.2547 5.19174 19.4627 5.33736 19.6396 5.49338C19.7124 5.55579 19.7956 5.62859 19.8268 5.7222C19.8476 5.79501 19.8268 5.85742 19.7748 5.90943C19.5043 6.13825 19.0259 5.6494 18.9323 5.37897L18.5162 5.57659C18.7347 6.00304 19.1091 6.38788 19.6916 6.40868C19.8996 6.39828 20.1492 6.28387 20.2636 6.02384C20.3364 5.81582 20.3572 5.62859 20.2532 5.46217C20.1492 5.29575 19.9724 5.12934 19.8372 5.03573Z" fill="#002E60"/>
<path fill-rule="evenodd" clip-rule="evenodd" d="M23.6958 6.71033L24.7672 8.01048L24.4343 8.29131L23.6646 7.3656L23.3006 7.65684L23.9663 8.44733L23.519 8.59294L22.9782 7.93767L22.6037 8.2393L23.3942 9.17541L23.0614 9.45624L21.9692 8.14569L23.6958 6.71033Z" fill="#002E60"/>
<path d="M25.3916 9.97628L25.1628 9.51863L24.5907 9.80986L24.8091 10.2467C24.9235 10.4859 25.1108 10.5171 25.2564 10.4651C25.4228 10.4131 25.5164 10.2051 25.3916 9.97628ZM24.2059 11.6197L23.9458 11.11L24.3723 10.3611L24.185 10.0075L23.5506 10.3299L23.3322 9.89307L25.3292 8.88416L25.7556 9.73705C25.818 9.85146 25.8388 9.92427 25.87 10.0179C25.9325 10.1947 25.9325 10.3611 25.8804 10.4963C25.6932 10.9436 25.1004 11.1724 24.6739 10.7772L24.2059 11.6197Z" fill="#002E60"/>
<path d="M25.4012 15.229C25.214 15.3954 24.9228 15.3538 24.7668 15.1874C24.6939 15.1146 24.6523 15.0106 24.6523 14.8961C24.6627 14.8129 24.6835 14.7401 24.7148 14.6673C24.7564 14.5841 24.8188 14.5217 24.8916 14.4905C25.058 14.3969 25.2868 14.3969 25.4428 14.4905C25.5572 14.5633 25.6301 14.6777 25.6613 14.8129C25.6821 14.8961 25.6925 14.9898 25.6925 15.0938C25.6925 15.3642 25.6093 15.6138 25.4116 15.7386C25.3596 15.7698 25.2868 15.7906 25.2036 15.801C24.9852 15.8218 24.8188 15.7594 24.6835 15.6554L24.8292 15.4266C25.214 15.7282 25.4012 15.437 25.4012 15.229ZM25.422 14.8857C25.422 14.7713 25.3284 14.6985 25.2348 14.6777C25.1932 14.6673 25.1412 14.6673 25.0996 14.6777C25.058 14.6881 25.0164 14.7193 24.9956 14.7505C24.8916 14.8753 24.9644 15.0418 25.058 15.073C25.0892 15.0834 25.1412 15.0938 25.1932 15.1042C25.3804 15.0938 25.422 14.9377 25.422 14.8857Z" fill="#7BB1DD"/>
<path d="M27.1083 15.4889H26.9314V15.7906H26.661V15.4889H25.9953L25.9537 15.2809L26.6818 14.4176H26.9314V15.2497H27.1083V15.4889ZM26.6714 15.2601V14.8337L26.2866 15.2601H26.6714Z" fill="#7BB1DD"/>
<path d="M3.22598 14.7817L3.16357 14.5529L3.52762 14.4385H3.74604V15.7906H3.46521V14.7089L3.22598 14.7817Z" fill="#7BB1DD"/>
<path d="M4.88048 15.0831C5.0365 15.1455 5.11971 15.2703 5.11971 15.4263C5.11971 15.6135 4.98449 15.7383 4.81808 15.7799C4.75567 15.8008 4.68286 15.8008 4.59965 15.8008C4.38122 15.7904 4.08999 15.6967 4.07959 15.4263C4.08999 15.2391 4.1316 15.1663 4.28761 15.0831C4.12119 14.9791 4.05879 14.8022 4.1628 14.615C4.1836 14.5734 4.22521 14.5318 4.26681 14.511C4.30842 14.4798 4.36042 14.459 4.41243 14.4486C4.46443 14.4382 4.52684 14.4278 4.58925 14.4278C4.82847 14.4278 5.0365 14.5422 5.0573 14.7814C5.0677 14.8438 5.0573 14.9167 5.0157 14.9687C5.0053 15.0103 4.95329 15.0519 4.88048 15.0831ZM4.74527 14.9479C4.77647 14.9167 4.79727 14.875 4.79727 14.8334C4.79727 14.7814 4.77647 14.7502 4.74527 14.719C4.71406 14.6878 4.66206 14.6774 4.61005 14.6774C4.54764 14.6774 4.50604 14.6878 4.47484 14.719C4.44363 14.7502 4.42283 14.7814 4.42283 14.8334C4.42283 14.875 4.44363 14.9167 4.47484 14.9479C4.53724 14.9999 4.65165 15.0103 4.74527 14.9479ZM4.82848 15.3847C4.82848 15.2495 4.67246 15.2079 4.56845 15.2183C4.46443 15.2287 4.36042 15.2911 4.36042 15.3847C4.36042 15.5095 4.49564 15.5719 4.59965 15.5719C4.72446 15.5719 4.82848 15.4887 4.82848 15.3847Z" fill="#7BB1DD"/>
<path fill-rule="evenodd" clip-rule="evenodd" d="M15 23.7368C15.7801 23.4872 17.0074 22.9879 18.214 22.0726C19.1189 21.459 20.1174 20.294 20.8143 18.9939C21.1471 18.3178 21.3343 17.6625 21.4383 17.0385C21.6464 15.8423 21.636 14.4902 21.6048 13.1588C21.5319 11.9315 21.3447 10.4649 20.9807 8.83193C17.9747 8.28066 16.1545 8.33267 15 8.32227" fill="#E9AB00"/>
<path fill-rule="evenodd" clip-rule="evenodd" d="M21.1056 15.8115C20.8248 19.2543 19.2126 21.6361 15.0002 23.1339C10.7877 21.6257 9.17549 19.2543 8.89465 15.8115H21.1056Z" fill="#7BB1DD"/>
<path fill-rule="evenodd" clip-rule="evenodd" d="M8.85328 15.3018C8.82208 14.6361 8.84288 13.9393 8.88448 13.1904C8.94689 12.0358 9.0197 10.6941 9.36294 9.16511C12.036 8.68666 13.8459 8.69706 14.99 8.65546C16.1341 8.68666 17.9439 8.67626 20.617 9.16511C20.9603 10.7045 21.0331 12.0462 21.0955 13.1904C21.1475 13.9393 21.1579 14.6361 21.1267 15.3122L8.85328 15.3018Z" fill="white"/>
<path fill-rule="evenodd" clip-rule="evenodd" d="M19.0672 20.7208C18.7447 21.0537 18.3703 21.3657 17.9542 21.6673L13.1073 15.8219H15.0003L19.0672 20.7208ZM20.7938 17.6629C20.6377 18.2453 20.4193 18.7966 20.1281 19.3063L17.2366 15.8115H19.2648L20.7938 17.6629ZM16.4253 22.5514C15.9884 22.7595 15.51 22.9571 14.9899 23.1443L8.8844 15.8219H10.871L16.4253 22.5514Z" fill="#A8C9E8"/>
<path fill-rule="evenodd" clip-rule="evenodd" d="M16.4978 14.3759C17.3507 14.3343 18.2244 14.1991 18.63 14.0951C18.5468 14.7608 17.8707 14.688 18.2556 15.312H17.3923C17.0698 15.1976 16.7266 15.0624 16.4354 15.0416C16.3522 15.0312 16.2794 15.0312 16.2065 15.0624C15.3016 15.4057 14.5736 15.0104 13.8975 15C13.8767 15.0832 13.7311 15.1768 13.4398 15.208C12.951 15.2704 12.6077 15.0624 12.2229 15.052C12.0877 15.052 11.9525 15.0936 11.838 15.312C11.6404 15.0416 11.526 14.8336 11.2556 14.5008C10.8499 14.3031 10.4755 14.1471 10.1115 14.0119L10.1323 13.9391C11.2972 14.2927 12.1709 14.4279 12.9614 14.5008C13.9287 14.5424 14.9792 14.6048 15.9257 14.532C16.1961 14.4279 16.3002 14.3863 16.4978 14.3759Z" fill="#FBC24E"/>
<path fill-rule="evenodd" clip-rule="evenodd" d="M18.5046 14.1885C18.4006 14.615 17.7661 14.7814 18.1925 15.3119H17.6829C17.3604 15.1975 16.7988 14.9478 16.1747 14.9478C15.9459 15.1246 15.5298 15.2079 14.8954 15.0622C14.6041 14.9998 14.1985 14.8958 13.7824 14.9062C13.6888 15.3015 12.3783 15.1454 11.9102 14.5318L11.3173 14.3862L11.1821 14.2821C12.1286 14.4798 13.0855 14.5942 13.5848 14.615C14.4793 14.6462 15.3218 14.6462 15.9251 14.6254C16.1227 14.563 16.1643 14.5422 16.2683 14.5006C16.4139 14.4278 16.5803 14.4382 16.726 14.4382C17.5477 14.3758 18.0781 14.2613 18.5046 14.1885Z" fill="#EAAA00"/>
<path fill-rule="evenodd" clip-rule="evenodd" d="M14.4907 14.3654C14.6051 14.199 14.7924 14.1054 15.0108 14.0637L15.0004 14.5526C15.0524 14.5526 15.1148 14.5526 15.1668 14.5526L15.1564 14.0325C15.7701 13.9493 16.4254 14.0533 16.9558 14.1782V14.355C17.0182 14.355 17.0702 14.3446 17.1222 14.3446V14.1366L18.8488 13.5333C18.36 12.8884 18.4016 12.1291 18.5264 11.3594C18.4328 11.7443 18.204 12.462 17.6215 13.1172C17.1534 13.6373 17.2054 13.7517 17.1222 13.8973L17.091 10.4025L16.6958 10.5377C16.6126 10.5585 16.6646 10.6002 16.5918 10.6314L16.1965 10.7874L16.6542 10.7666C16.7166 10.7666 16.675 10.673 16.7374 10.6626L16.987 10.6418L16.9558 14.0949C16.6854 13.6685 16.2069 13.1588 16.4045 12.0875C15.9261 13.9077 14.3763 13.7101 14.4907 14.3654ZM13.8147 12.4308C13.3986 13.8557 12.1609 13.6789 12.2337 14.251C12.4209 14.0845 12.6081 14.0741 12.7849 14.0221V14.459C12.8369 14.4694 12.8889 14.4694 12.941 14.4694L12.9514 14.0013C13.3986 13.9493 13.7938 14.0013 14.1995 14.0429C13.8771 13.5125 13.669 12.982 13.8147 12.4308Z" fill="#EAAA00"/>
<path fill-rule="evenodd" clip-rule="evenodd" d="M18.5363 11.3493C18.4427 11.7341 18.2139 12.4518 17.6314 13.1071C17.1634 13.6272 17.2154 13.7416 17.1322 13.8872L17.1114 11.8486L18.5363 11.3493ZM14.2406 12.8055L16.4145 12.0566C15.9256 13.908 14.3759 13.7 14.5007 14.3552C14.1262 14.0224 13.7726 13.3671 14.2406 12.8055ZM12.0148 13.0551L13.8142 12.431C13.3981 13.856 12.1604 13.6792 12.2332 14.2512C11.8172 13.8352 11.8068 13.3359 12.0148 13.0551Z" fill="#FFBB59"/>
<path fill-rule="evenodd" clip-rule="evenodd" d="M15.1665 9.96593V9.34186L14.7712 9.47707C14.688 9.49787 14.74 9.53948 14.6672 9.57068L14.272 9.7267L14.7296 9.7059C14.792 9.7059 14.7504 9.61229 14.8128 9.60189L15.0625 9.58108V10.0179L15.1665 9.96593Z" fill="#EAAA00"/>
<path fill-rule="evenodd" clip-rule="evenodd" d="M12.9301 11.5053V10.746L12.5349 10.8812C12.4517 10.902 12.5037 10.9437 12.4309 10.9749L12.046 11.1205L12.4933 11.1101C12.5557 11.1101 12.5141 11.0165 12.5765 11.0061L12.8261 10.9853V11.5469L12.9301 11.5053Z" fill="#EAAA00"/>
<path fill-rule="evenodd" clip-rule="evenodd" d="M14.718 9.69544C14.7805 9.69544 14.7388 9.60183 14.8013 9.59143L14.7597 9.46661C14.6764 9.48742 14.7284 9.52902 14.6556 9.56023L14.718 9.69544Z" fill="#FFBB59"/>
<path fill-rule="evenodd" clip-rule="evenodd" d="M15.8521 9.7265C15.2176 10.9538 14.3543 10.7458 14.2503 11.3387C13.9174 11.0683 14.0631 10.517 14.2711 10.2778L15.8521 9.7265Z" fill="#FFBB59"/>
<path fill-rule="evenodd" clip-rule="evenodd" d="M16.0405 10.7874C15.822 10.5274 15.6764 10.2154 15.8533 9.7265C15.2188 10.9538 14.3555 10.7458 14.2515 11.3387C14.6155 10.8498 15.7076 10.8082 16.0405 10.7874Z" fill="#EAAA00"/>
<path fill-rule="evenodd" clip-rule="evenodd" d="M14.2613 12.7013C13.8869 12.1501 13.9181 11.5884 14.2509 11.4324C14.8438 11.2244 15.6031 10.9851 16.0295 10.7979C15.7383 11.942 14.3965 12.0461 14.2613 12.7013Z" fill="#FFBB59"/>
<path fill-rule="evenodd" clip-rule="evenodd" d="M16.0402 10.7874C15.7385 11.9419 14.4072 12.046 14.272 12.7012C14.5528 12.3268 15.1977 12.0772 16.4146 12.0356C16.1442 11.6923 15.957 11.3075 16.0402 10.7874Z" fill="#EAAA00"/>
<path fill-rule="evenodd" clip-rule="evenodd" d="M13.5127 11.2972C12.9927 11.4949 12.535 11.6509 12.1294 11.7861C11.9421 11.9733 11.7133 12.4934 12.0566 12.9302C11.9942 12.4206 13.0759 12.2333 13.5127 11.2972Z" fill="#FFBB59"/>
<path fill-rule="evenodd" clip-rule="evenodd" d="M12.0554 12.9302C11.993 12.4206 13.0851 12.2333 13.5116 11.2972C13.4908 11.5261 13.4076 12.0149 13.8132 12.4206C13.1788 12.4518 12.3571 12.5454 12.0554 12.9302Z" fill="#EAAA00"/>
<path fill-rule="evenodd" clip-rule="evenodd" d="M12.4827 11.1099C12.5451 11.1099 12.5035 11.0163 12.5659 11.0059L12.5243 10.881C12.4411 10.9018 12.4931 10.9434 12.4203 10.9747L12.4827 11.1099Z" fill="#FFBB59"/>
<path fill-rule="evenodd" clip-rule="evenodd" d="M11.8785 11.8485C11.4312 12.1709 10.6199 12.7742 10.1935 13.7935C10.4743 13.7623 10.7551 13.7623 11.1608 13.8455C10.8384 13.6271 10.7759 13.3775 11.8785 11.8485Z" fill="#FFBB59"/>
<path fill-rule="evenodd" clip-rule="evenodd" d="M11.4853 13.9182L11.1525 13.8558C10.83 13.6374 10.7676 13.3877 11.8701 11.8588C11.6517 12.254 11.2981 12.9821 11.4853 13.9182Z" fill="#EAAA00"/>
<path fill-rule="evenodd" clip-rule="evenodd" d="M16.6535 10.7461C16.7159 10.7461 16.6743 10.6525 16.7367 10.6421L16.6951 10.5173C16.6119 10.5381 16.6639 10.5797 16.5911 10.6109L16.6535 10.7461Z" fill="#FFBB59"/>
<path fill-rule="evenodd" clip-rule="evenodd" d="M15.1148 16.6538L15.3748 16.9763C15.406 17.0179 15.3956 17.0595 15.3956 17.0907C15.5724 17.0803 15.7805 17.1427 15.8949 17.3091C16.0197 17.4963 16.1133 17.5899 16.2173 17.6628C16.3525 17.7668 16.4877 17.8084 16.6126 17.85C16.7894 17.902 16.9246 18.0164 17.0078 18.2556C17.039 18.2556 17.0598 18.2348 17.1534 18.266L17.4967 18.3804C17.5175 18.3908 17.5487 18.4012 17.5695 18.422C17.5903 18.4532 17.6007 18.474 17.6007 18.5053C17.6007 18.5365 17.6007 18.5677 17.5903 18.5989L17.3302 18.9629C17.3094 18.9941 17.2574 19.0045 17.247 19.0045C17.3198 19.1709 17.3302 19.3894 17.1846 19.5766C17.0078 19.8054 16.9766 19.8782 16.935 20.003C16.9038 20.0966 16.8934 20.2735 16.8934 20.4711C16.8934 20.6271 16.8102 20.7727 16.6438 20.8767C16.6438 20.8871 16.6542 20.9079 16.6542 20.9391V21.3136C16.6542 21.3656 16.6542 21.4072 16.6334 21.4488C16.6022 21.5008 16.5605 21.5216 16.4981 21.5216C16.4461 21.532 16.4045 21.5216 16.3941 21.5112L16.0197 21.3864C15.9781 21.3656 15.9781 21.3448 15.9781 21.3448C15.6036 21.6464 15.2916 21.376 14.99 21.3656C14.6883 21.376 14.3763 21.6464 14.0019 21.3448C14.0019 21.3448 13.9915 21.3656 13.9603 21.3864L13.5858 21.5112C13.5754 21.5112 13.5338 21.5216 13.4818 21.5216C13.4298 21.5112 13.3882 21.4904 13.3466 21.4488C13.3258 21.4176 13.3154 21.3656 13.3258 21.3136V20.9391C13.3258 20.9079 13.3362 20.8871 13.3362 20.8767C13.1594 20.7727 13.0866 20.6271 13.0866 20.4711C13.0866 20.2735 13.0762 20.0966 13.0449 20.003C13.0033 19.8678 12.9721 19.8054 12.7953 19.5766C12.6497 19.3894 12.6705 19.1709 12.7329 19.0045C12.7225 19.0045 12.6809 18.9941 12.6497 18.9629L12.3897 18.5989C12.3689 18.5677 12.3689 18.5261 12.3793 18.5053C12.3793 18.474 12.3897 18.4428 12.4105 18.422C12.4313 18.4012 12.4625 18.3908 12.4833 18.3804L12.8265 18.266C12.9201 18.2348 12.9409 18.2556 12.9721 18.2556C13.0553 18.006 13.1906 17.8916 13.3674 17.85C13.4922 17.8188 13.6274 17.7668 13.7626 17.6628C13.8666 17.5899 13.9499 17.4859 14.0851 17.3091C14.2099 17.1427 14.4075 17.0803 14.5843 17.0907C14.5843 17.0595 14.5635 17.0179 14.6051 16.9763L14.8652 16.6538C14.9068 16.6018 14.9588 16.6018 14.9796 16.5914C15.0316 16.6018 15.0732 16.6018 15.1148 16.6538Z" fill="#002E60"/>
<path fill-rule="evenodd" clip-rule="evenodd" d="M14.8954 17.9125C14.8122 17.8293 14.6666 17.7669 14.5106 17.8917C14.4898 17.9021 14.469 17.9229 14.4482 17.9437C14.313 18.0685 14.2922 18.1829 14.1466 18.2557C13.9489 18.3493 13.5953 18.3493 13.7097 18.7342C13.7513 18.8486 13.7513 18.8278 13.6473 18.807C13.4601 18.7654 13.3041 18.6614 13.2833 18.4637C13.2729 18.2765 13.3665 18.1309 13.5225 18.0789C13.6265 18.0477 13.7409 18.0373 13.9489 17.8917C14.1986 17.7253 14.2298 17.5068 14.417 17.4132C14.5314 17.3716 14.6354 17.3716 14.7498 17.4132C14.9266 17.4964 14.9682 17.6837 14.9474 17.9021C14.9474 17.9645 14.9162 17.9333 14.8954 17.9125Z" fill="#E41819"/>
<path fill-rule="evenodd" clip-rule="evenodd" d="M14.9373 18.9316V18.2867C14.9477 18.1411 14.8853 18.0371 14.7605 18.0059C14.7085 17.9955 14.646 17.9955 14.594 18.0267C14.5212 18.0683 14.4796 18.1411 14.4172 18.2139C14.3548 18.2867 14.282 18.3595 14.1988 18.3907C14.126 18.4219 14.0428 18.4323 13.97 18.4739C13.8868 18.5155 13.8244 18.5779 13.8348 18.6923C13.8348 18.7547 13.866 18.8171 13.918 18.8588C13.97 18.9004 14.0324 18.9212 14.1052 18.942L14.6564 19.1188C14.6981 19.1292 14.7189 19.1188 14.7397 19.0876C14.8021 18.994 14.8541 18.9836 14.9061 18.9732C14.9373 18.9836 14.9373 18.9524 14.9373 18.9316Z" fill="#E41819"/>
<path fill-rule="evenodd" clip-rule="evenodd" d="M15.1355 17.9125C15.2187 17.8293 15.3644 17.7669 15.5204 17.8917C15.5412 17.9021 15.562 17.9229 15.5828 17.9437C15.718 18.0685 15.7388 18.1829 15.8844 18.2557C16.082 18.3493 16.4357 18.3493 16.3213 18.7342C16.2797 18.8486 16.2797 18.8278 16.3837 18.807C16.5709 18.7654 16.7269 18.6614 16.7477 18.4637C16.7581 18.2765 16.6645 18.1309 16.5085 18.0789C16.4045 18.0477 16.2901 18.0373 16.082 17.8917C15.8324 17.7253 15.8012 17.5068 15.614 17.4132C15.4996 17.3716 15.3956 17.3716 15.2811 17.4132C15.1043 17.4964 15.0627 17.6837 15.0835 17.9021C15.0835 17.9645 15.1147 17.9333 15.1355 17.9125Z" fill="#E41819"/>
<path fill-rule="evenodd" clip-rule="evenodd" d="M15.0938 18.9316V18.2867C15.0834 18.1411 15.1458 18.0371 15.2706 18.0059C15.3226 17.9955 15.385 17.9955 15.437 18.0267C15.5099 18.0683 15.5515 18.1411 15.6139 18.2139C15.6763 18.2867 15.7491 18.3595 15.8323 18.3907C15.9051 18.4219 15.9883 18.4323 16.0611 18.4739C16.1443 18.5155 16.2067 18.5779 16.1963 18.6923C16.1963 18.7547 16.1651 18.8171 16.1131 18.8588C16.0611 18.9004 15.9987 18.9212 15.9259 18.942L15.3746 19.1188C15.3642 19.1292 15.3434 19.1292 15.333 19.1292C15.3226 19.1292 15.3226 19.1292 15.3122 19.1188C15.229 18.994 15.1874 18.994 15.1146 18.9732C15.0938 18.9732 15.0834 18.9524 15.0938 18.9316Z" fill="#E41819"/>
<path fill-rule="evenodd" clip-rule="evenodd" d="M15.9371 20.3879C16.0515 20.4087 16.2075 20.3671 16.2595 20.1799C16.2699 20.1591 16.2699 20.1279 16.2803 20.0967C16.3115 19.9198 16.2595 19.8054 16.3427 19.6598C16.4467 19.4622 16.738 19.2542 16.4155 19.0149C16.3219 18.9525 16.3219 18.9629 16.4259 18.9213C16.6028 18.8485 16.79 18.8381 16.9252 18.9837C17.0396 19.1294 17.0604 19.2958 16.9564 19.4414C16.894 19.535 16.8108 19.6078 16.7276 19.847C16.634 20.1279 16.7276 20.3255 16.6236 20.5127C16.5611 20.6167 16.4675 20.6791 16.3531 20.6999C16.1555 20.7415 16.0203 20.6063 15.9059 20.4191C15.8747 20.3671 15.9163 20.3775 15.9371 20.3879Z" fill="#E41819"/>
<path fill-rule="evenodd" clip-rule="evenodd" d="M15.301 19.5975L15.6858 20.1175C15.7586 20.2423 15.873 20.2943 15.9978 20.2423C16.0499 20.2215 16.0915 20.1903 16.1123 20.1279C16.1435 20.0551 16.1435 19.9615 16.1435 19.8679C16.1539 19.7743 16.1643 19.6703 16.2163 19.5975C16.2579 19.5351 16.3099 19.4623 16.3515 19.3998C16.3931 19.3166 16.4035 19.2334 16.3307 19.1398C16.2891 19.0878 16.2371 19.0566 16.1643 19.0462C16.0915 19.0462 16.0394 19.067 15.9666 19.0878L15.4154 19.275C15.3842 19.2854 15.3634 19.3062 15.3738 19.3374C15.3842 19.4623 15.3322 19.5143 15.2906 19.5455C15.2802 19.5559 15.2906 19.5767 15.301 19.5975Z" fill="#E41819"/>
<path fill-rule="evenodd" clip-rule="evenodd" d="M14.0847 20.3879C13.9703 20.4087 13.8143 20.3671 13.7623 20.1799C13.7519 20.1591 13.7519 20.1279 13.7415 20.0967C13.7103 19.9198 13.7623 19.8054 13.6791 19.6598C13.575 19.4622 13.2838 19.2542 13.6062 19.0149C13.6999 18.9525 13.6999 18.9629 13.5958 18.9213C13.419 18.8485 13.2318 18.8381 13.0966 18.9837C12.9822 19.1294 12.9614 19.2958 13.0654 19.4414C13.1278 19.535 13.211 19.6078 13.2942 19.847C13.3878 20.1279 13.2942 20.3255 13.3982 20.5127C13.4606 20.6167 13.5542 20.6791 13.6687 20.6999C13.8663 20.7415 14.0015 20.6063 14.1159 20.4191C14.1575 20.3671 14.1159 20.3775 14.0847 20.3879Z" fill="#E41819"/>
<path fill-rule="evenodd" clip-rule="evenodd" d="M14.7193 19.5975L14.3345 20.1175C14.2617 20.2423 14.1473 20.2943 14.0225 20.2423C13.9705 20.2215 13.9289 20.1903 13.9081 20.1279C13.8768 20.0551 13.8768 19.9615 13.8768 19.8679C13.8664 19.7743 13.856 19.6703 13.804 19.5975C13.7624 19.5351 13.7 19.4623 13.6688 19.3998C13.6272 19.3166 13.6168 19.2334 13.6896 19.1398C13.7312 19.0878 13.7832 19.0566 13.856 19.0462C13.9289 19.0462 13.9809 19.067 14.0537 19.0878L14.6049 19.275C14.6361 19.2854 14.6465 19.2958 14.6569 19.3166C14.6361 19.4102 14.6777 19.4727 14.7297 19.5351C14.7401 19.5559 14.7401 19.5767 14.7193 19.5975Z" fill="#E41819"/>
<path fill-rule="evenodd" clip-rule="evenodd" d="M15.7492 20.5126C15.7284 20.627 15.6556 20.7623 15.4475 20.7623C15.4163 20.7623 15.3955 20.7623 15.3643 20.7519C15.1875 20.7311 15.0939 20.6479 14.9379 20.6791C14.7195 20.7207 14.4282 20.9287 14.3034 20.5542C14.2722 20.4398 14.2826 20.4502 14.2098 20.5334C14.085 20.6791 14.0122 20.8559 14.1266 21.0223C14.2306 21.1783 14.3866 21.2407 14.553 21.1887C14.657 21.1575 14.7507 21.0951 15.0107 21.0847C15.3123 21.0743 15.4683 21.2303 15.666 21.1887C15.7804 21.1575 15.874 21.0951 15.926 20.9911C16.0196 20.8143 15.9364 20.6479 15.7908 20.4814C15.7492 20.4398 15.7492 20.4814 15.7492 20.5126Z" fill="#E41819"/>
<path fill-rule="evenodd" clip-rule="evenodd" d="M15.1881 19.6599L15.5729 20.1799C15.6665 20.284 15.6873 20.4088 15.5937 20.5128C15.5521 20.5544 15.5105 20.5856 15.4481 20.596C15.3649 20.6064 15.2817 20.5752 15.1881 20.544C15.0945 20.5232 15.0009 20.5024 14.9072 20.5232C14.8344 20.544 14.7512 20.5752 14.6784 20.5856C14.5848 20.596 14.5016 20.5856 14.4392 20.492C14.3976 20.44 14.3872 20.3776 14.408 20.3048C14.4288 20.232 14.4704 20.1903 14.512 20.1279L14.8552 19.6599C14.876 19.6391 14.8864 19.6183 14.9176 19.6287C15.0217 19.6807 15.1049 19.6495 15.1465 19.6287C15.1569 19.6287 15.1777 19.6495 15.1881 19.6599Z" fill="#E41819"/>
<path d="M15.2395 19.3164C15.2395 19.4309 15.1459 19.5349 15.021 19.5349C14.9066 19.5349 14.8026 19.4413 14.8026 19.3164C14.8026 19.202 14.8962 19.098 15.021 19.098C15.1355 19.098 15.2395 19.202 15.2395 19.3164Z" fill="#FEBE53"/>
<path fill-rule="evenodd" clip-rule="evenodd" d="M14.8128 17.2053C14.792 17.1845 14.792 17.1741 14.8232 17.1533C14.8856 17.0805 14.9377 16.9973 15.0001 16.8932C15.0625 16.9869 15.1249 17.0701 15.1769 17.1533C15.1977 17.1845 15.2081 17.1845 15.1873 17.2053C15.1145 17.2677 15.0417 17.3405 15.0001 17.4757C14.9689 17.3405 14.8856 17.2677 14.8128 17.2053Z" fill="#E41819"/>
<path fill-rule="evenodd" clip-rule="evenodd" d="M16.9555 18.4948C16.9659 18.4636 16.9763 18.474 17.0075 18.4844C17.1011 18.5156 17.1947 18.5468 17.3091 18.578C17.2363 18.6612 17.1739 18.7444 17.1115 18.8276C17.0907 18.8588 17.0907 18.8692 17.0595 18.8484C16.9763 18.7964 16.8827 18.7444 16.7474 18.7548C16.8723 18.6716 16.9139 18.578 16.9555 18.4948Z" fill="#E41819"/>
<path fill-rule="evenodd" clip-rule="evenodd" d="M12.95 18.8379C12.9188 18.8587 12.9188 18.8483 12.898 18.8171C12.846 18.7339 12.7836 18.6611 12.7108 18.5675C12.8252 18.5363 12.9188 18.5051 13.0124 18.4739C13.0437 18.4635 13.0541 18.4531 13.0645 18.4843C13.0957 18.5675 13.1477 18.6715 13.2621 18.7443C13.1269 18.7339 13.0228 18.7963 12.95 18.8379Z" fill="#E41819"/>
<path fill-rule="evenodd" clip-rule="evenodd" d="M16.3947 20.8872C16.4259 20.8872 16.4259 20.8976 16.4259 20.9392C16.4259 21.0328 16.4259 21.1368 16.4363 21.2512C16.3323 21.2096 16.2283 21.1784 16.1346 21.1576C16.1034 21.1472 16.093 21.1472 16.093 21.116C16.1138 21.0224 16.1346 20.9184 16.0826 20.7936C16.1971 20.8664 16.3011 20.8768 16.3947 20.8872Z" fill="#E41819"/>
<path fill-rule="evenodd" clip-rule="evenodd" d="M13.9289 21.0952C13.9393 21.1264 13.9289 21.1264 13.8873 21.1368C13.7937 21.168 13.7001 21.1992 13.5961 21.2408C13.6065 21.1264 13.6065 21.0224 13.5961 20.9288C13.5961 20.8976 13.5961 20.8872 13.6273 20.8768C13.7209 20.8664 13.8249 20.856 13.9289 20.7624C13.8873 20.8976 13.9081 21.012 13.9289 21.0952Z" fill="#E41819"/>
</svg>
