<svg width="16" height="16" viewBox="0 0 16 16" fill="none" xmlns="http://www.w3.org/2000/svg">
<g clip-path="url(#clip0)">
<path d="M8.79556 15.3527C8.73435 15.5426 8.52452 15.9999 8.02616 15.9999C7.45785 15.9999 7.2655 15.3958 7.24802 15.37L7.23053 15.3095C7.23053 15.3095 7.72015 15.3527 7.99119 15.3527C8.26222 15.3527 8.71687 15.3268 8.79556 15.3095V15.3527Z" fill="black"/>
<path d="M10.282 15.0507L10.3956 15.0679C10.2557 15.4218 10.0109 15.8274 9.52132 15.8274C9.04919 15.8274 8.81312 15.5598 8.70821 15.37L8.62952 15.3182C8.62952 15.3182 9.45138 15.2923 10.282 15.0507Z" fill="black"/>
<path d="M5.77919 15.0507L5.66553 15.0679C5.80542 15.4218 6.05023 15.8274 6.54859 15.8274C7.02072 15.8274 7.28301 15.5426 7.38793 15.37L7.44039 15.3182C7.44039 15.3182 6.61853 15.2923 5.77919 15.0507Z" fill="black"/>
<path d="M8.41957 15.3873C8.34088 15.4995 8.28842 15.4908 8.20099 15.4908C8.15728 15.4908 8.08733 15.5254 8.08733 15.5944C8.08733 15.6462 8.13105 15.6893 8.20974 15.6893C8.37586 15.6893 8.507 15.4563 8.54198 15.3614C8.54198 15.3614 8.63815 15.3614 8.67312 15.3528C8.67312 15.3528 8.49826 15.8706 8.03487 15.8706C7.57148 15.8706 7.38788 15.3528 7.38788 15.3528C7.38788 15.3528 7.77258 15.3786 7.9999 15.3786C8.20974 15.3959 8.35837 15.3873 8.41957 15.3873Z" fill="#FFF200"/>
<path d="M10.2208 15.1543C9.92349 15.2319 9.70491 15.301 9.19781 15.3614C9.19781 15.3614 9.2153 15.4132 9.32021 15.4045C9.36393 15.4045 9.36393 15.3959 9.38142 15.3873C9.41639 15.3786 9.46011 15.4132 9.45136 15.4649C9.45136 15.4995 9.41639 15.5512 9.30273 15.5512C9.18907 15.5512 9.05792 15.4649 8.99672 15.3786C8.99672 15.3786 8.92677 15.3959 8.85683 15.3959C8.85683 15.3959 9.07541 15.6893 9.49508 15.6893C9.97595 15.7066 10.1421 15.2923 10.2208 15.1543Z" fill="#FFF200"/>
<path d="M9.9059 15.4477C9.9059 15.3786 9.87967 15.3096 9.8447 15.2578C9.67858 15.2923 9.49497 15.3269 9.22394 15.3614C9.22394 15.37 9.22394 15.3786 9.21519 15.3873C9.23268 15.4045 9.26765 15.4132 9.32011 15.4132C9.36383 15.4132 9.36383 15.4045 9.38131 15.3959C9.41629 15.3873 9.46 15.4218 9.45126 15.4736C9.45126 15.5081 9.41629 15.5599 9.30263 15.5599C9.2764 15.5599 9.24142 15.5512 9.21519 15.5426C9.23268 15.5944 9.25891 15.6375 9.29388 15.6721C9.35508 15.6893 9.42503 15.698 9.50372 15.698C9.65235 15.698 9.77475 15.6548 9.87093 15.5944C9.89716 15.5512 9.9059 15.4995 9.9059 15.4477Z" fill="#FFDF00"/>
<path d="M9.90596 15.4477C9.90596 15.3786 9.87973 15.3096 9.84476 15.2578C9.68739 15.2923 9.49504 15.3269 9.23274 15.3614C9.23274 15.37 9.224 15.3786 9.224 15.3873C9.24149 15.3959 9.27646 15.4132 9.32892 15.4045C9.37263 15.4045 9.37263 15.3959 9.39012 15.3873C9.42509 15.3786 9.46881 15.4132 9.46006 15.4649C9.46006 15.4995 9.42509 15.5512 9.31143 15.5512C9.2852 15.5512 9.25897 15.5426 9.224 15.534C9.24149 15.5858 9.26771 15.6289 9.30269 15.6634C9.36389 15.6807 9.43383 15.6893 9.50378 15.6893C9.65241 15.6893 9.76607 15.6462 9.86225 15.5944C9.88848 15.5599 9.90596 15.5081 9.90596 15.4477Z" fill="#FFE100"/>
<path d="M9.89722 15.4477C9.89722 15.3786 9.871 15.3096 9.83602 15.2578C9.67864 15.2923 9.49504 15.3269 9.23274 15.3614C9.23274 15.37 9.224 15.3786 9.224 15.3959C9.24149 15.4045 9.27646 15.4132 9.32017 15.4132C9.36389 15.4132 9.36389 15.4045 9.38138 15.3959C9.41635 15.3873 9.46007 15.4218 9.45132 15.4736C9.45132 15.5081 9.41635 15.5599 9.30269 15.5599C9.27646 15.5599 9.25023 15.5512 9.224 15.5512C9.24149 15.603 9.26772 15.6462 9.30269 15.6893C9.36389 15.7066 9.42509 15.7066 9.49504 15.7066C9.63493 15.7066 9.74859 15.6721 9.84477 15.6117C9.87974 15.5599 9.89722 15.5081 9.89722 15.4477Z" fill="#FFE300"/>
<path d="M5.84935 15.1543C6.14662 15.2319 6.3652 15.301 6.8723 15.3614C6.8723 15.3614 6.85481 15.4132 6.7499 15.4045C6.70618 15.4045 6.70618 15.3959 6.68869 15.3873C6.65372 15.3786 6.61001 15.4132 6.61875 15.4649C6.61875 15.4995 6.65372 15.5512 6.76738 15.5512C6.88104 15.5512 7.01219 15.4649 7.07339 15.3786C7.07339 15.3786 7.14334 15.3959 7.21328 15.3959C7.21328 15.3959 6.9947 15.6893 6.57503 15.6893C6.09416 15.7066 5.9193 15.2923 5.84935 15.1543Z" fill="#FFF200"/>
<path d="M7.98271 12.712C9.59145 12.712 11.3751 11.7368 12.6166 10.3301C12.7477 10.1748 12.9838 9.88998 13.5259 9.88998C14.068 9.88998 14.7936 10.3819 14.7062 11.2708C14.645 11.918 13.7007 13.3851 12.1007 14.2826C10.492 15.1802 9.0144 15.3787 7.98271 15.3787C6.95102 15.3787 5.47342 15.1888 3.86468 14.2826C2.25593 13.3851 1.32042 11.918 1.25921 11.2708C1.17178 10.3819 1.89746 9.88998 2.43954 9.88998C2.98162 9.88998 3.20894 10.1748 3.34883 10.3301C4.5991 11.7368 6.37397 12.712 7.98271 12.712Z" fill="#FFF200"/>
<path d="M7.98259 12.6515C8.76074 12.6515 9.58259 12.4185 10.3607 12.0216C11.1739 11.6073 11.9432 11.0032 12.5728 10.2956C12.6427 10.2179 12.7389 10.1057 12.8875 10.0108C13.0361 9.91584 13.2372 9.83817 13.5258 9.83817C13.552 9.83817 13.587 9.83817 13.6219 9.8468C13.8842 9.87269 14.1728 9.99351 14.3913 10.2179C14.6099 10.4336 14.7673 10.7443 14.7673 11.1413C14.7673 11.1844 14.7673 11.2362 14.7586 11.288C14.7236 11.6591 14.4088 12.2891 13.858 12.9277C13.4208 13.4282 12.8351 13.9374 12.1269 14.343C11.3137 14.8004 10.5443 15.0766 9.83614 15.2319C9.12795 15.3959 8.49844 15.439 7.98259 15.439C7.46675 15.439 6.82849 15.3872 6.12904 15.2319C5.42084 15.0679 4.65144 14.7918 3.83833 14.343C3.12139 13.946 2.5356 13.4282 2.10718 12.9277C1.55636 12.2891 1.24161 11.6591 1.20663 11.288C1.19789 11.2362 1.19789 11.1844 1.19789 11.1413C1.19789 10.7443 1.35527 10.4336 1.57385 10.2179C1.79243 10.0021 2.08095 9.87269 2.34325 9.8468C2.37822 9.8468 2.40445 9.83817 2.43942 9.83817C2.72795 9.83817 2.92904 9.91584 3.07767 10.0108C3.22631 10.1057 3.32248 10.2179 3.39243 10.2956C4.02194 11.0032 4.79133 11.6073 5.60445 12.0216C6.38259 12.4185 7.20445 12.6515 7.98259 12.6515ZM7.98259 12.7637C7.18696 12.7637 6.34762 12.5307 5.55199 12.1165C4.73013 11.6936 3.94325 11.0809 3.305 10.3646C3.24379 10.2869 3.14762 10.1834 3.01647 10.0971C2.88532 10.0108 2.70172 9.94172 2.43942 9.94172C2.41319 9.94172 2.38696 9.94172 2.35199 9.94172C2.11592 9.96761 1.85363 10.0798 1.65254 10.2783C1.45144 10.4768 1.31155 10.7616 1.31155 11.124C1.31155 11.1672 1.31155 11.219 1.3203 11.2621C1.35527 11.6159 1.66128 12.22 2.19461 12.8414C2.62303 13.3333 3.20008 13.8339 3.89953 14.2308C4.69516 14.6796 5.46456 14.9471 6.15527 15.1111C6.84598 15.2751 7.47549 15.3182 7.98259 15.3182C8.4897 15.3182 9.1192 15.2664 9.80991 15.1111C10.5006 14.9471 11.27 14.6796 12.0657 14.2308C12.7651 13.8339 13.3422 13.3333 13.7706 12.8414C14.3126 12.22 14.6099 11.6159 14.6449 11.2621C14.6536 11.219 14.6536 11.1672 14.6536 11.124C14.6536 10.7616 14.5137 10.4768 14.3126 10.2783C14.1116 10.0798 13.8493 9.96761 13.6132 9.94172C13.587 9.94172 13.5607 9.94172 13.5258 9.94172C13.2635 9.94172 13.0799 10.0108 12.9487 10.0971C12.8176 10.1834 12.7214 10.2869 12.6602 10.3646C12.0219 11.0895 11.2351 11.6936 10.4132 12.1165C9.62631 12.5307 8.78696 12.7637 7.98259 12.7637Z" fill="black"/>
<path d="M3.16501 10.4682L3.14752 10.4509C3.01637 10.3042 2.84151 10.1057 2.42184 10.1057C2.17703 10.1057 1.89725 10.2352 1.71364 10.4337C1.57375 10.5804 1.41637 10.8479 1.46009 11.2449C1.51255 11.7886 2.39561 13.2125 3.96063 14.0841C5.21965 14.7918 6.57484 15.1543 7.96501 15.1543C9.35517 15.1543 10.7104 14.7918 11.9694 14.0841C13.5344 13.2039 14.4175 11.7886 14.4699 11.2449C14.5049 10.8479 14.3563 10.5804 14.2164 10.4337C14.0328 10.2352 13.753 10.1057 13.5082 10.1057C13.0885 10.1057 12.9136 10.3042 12.7825 10.4509L12.765 10.4682C11.4186 11.9784 9.57375 12.9191 7.95626 12.9191C6.35626 12.9277 4.51145 11.9871 3.16501 10.4682Z" fill="#E22F22"/>
<path d="M13.1499 8.6904C13.1499 7.93096 13.7794 7.3096 14.5488 7.3096C15.3182 7.3096 15.9477 7.93096 15.9477 8.6904C15.9477 9.44984 15.3182 10.0712 14.5488 10.0712C13.7794 10.0712 13.1499 9.44984 13.1499 8.6904Z" fill="#FFF200"/>
<path d="M13.0887 8.69038C13.0887 8.2934 13.2548 7.93095 13.5171 7.67205C13.7794 7.41315 14.1466 7.24918 14.5488 7.24918C14.9509 7.24918 15.3182 7.41315 15.5805 7.67205C15.8427 7.93095 16.0089 8.2934 16.0089 8.69038C16.0089 9.08736 15.8427 9.44982 15.5805 9.70872C15.3182 9.96762 14.9509 10.1316 14.5488 10.1316C14.1466 10.1316 13.7794 9.96762 13.5171 9.70872C13.2548 9.44119 13.0887 9.08736 13.0887 8.69038ZM13.2111 8.69038C13.2111 9.05284 13.3597 9.38941 13.6045 9.62242C13.8493 9.86406 14.1815 10.0108 14.5488 10.0108C14.916 10.0108 15.257 9.86406 15.493 9.62242C15.7378 9.38078 15.8865 9.05284 15.8865 8.69038C15.8865 8.32792 15.7378 7.99136 15.493 7.75835C15.2482 7.51671 14.916 7.37 14.5488 7.37C14.1815 7.37 13.8406 7.51671 13.6045 7.75835C13.3597 7.99136 13.2111 8.31929 13.2111 8.69038Z" fill="black"/>
<path d="M0.061264 8.6904C0.061264 7.93096 0.690772 7.3096 1.46017 7.3096C2.22957 7.3096 2.85908 7.93096 2.85908 8.6904C2.85908 9.44984 2.22957 10.0712 1.46017 10.0712C0.682029 10.0712 0.061264 9.44984 0.061264 8.6904Z" fill="#FFF200"/>
<path d="M0 8.69038C0 8.2934 0.16612 7.93095 0.428415 7.67205C0.69071 7.41315 1.05792 7.24918 1.46011 7.24918C1.8623 7.24918 2.22951 7.41315 2.4918 7.67205C2.7541 7.93095 2.92022 8.2934 2.92022 8.69038C2.92022 9.08736 2.7541 9.44982 2.4918 9.70872C2.22951 9.96762 1.8623 10.1316 1.46011 10.1316C1.05792 10.1316 0.69071 9.96762 0.428415 9.70872C0.16612 9.44119 0 9.08736 0 8.69038ZM0.113661 8.69038C0.113661 9.05284 0.262295 9.38941 0.507104 9.62242C0.751913 9.86406 1.08415 10.0108 1.45137 10.0108C1.81858 10.0108 2.15956 9.86406 2.39563 9.62242C2.64044 9.38078 2.78907 9.05284 2.78907 8.69038C2.78907 8.32792 2.64044 7.99136 2.39563 7.75835C2.15082 7.51671 1.81858 7.37 1.45137 7.37C1.08415 7.37 0.743169 7.51671 0.507104 7.75835C0.262295 7.99136 0.113661 8.32792 0.113661 8.69038Z" fill="black"/>
<path d="M14.9248 4.97954L14.9335 4.60845C15.0472 4.69475 15.2658 4.69475 15.3882 4.5653C15.4494 4.50489 15.4756 4.40996 15.4756 4.31503C15.4669 4.20284 15.4232 4.09065 15.3357 4.01298C14.8636 3.56422 14.4527 3.10683 14.4527 3.10683C14.409 3.03779 14.339 2.99464 14.304 2.97738C14.2428 2.95149 14.0417 2.85656 13.8844 3.08957C13.7445 3.29669 13.762 3.59874 13.7882 3.71093L14.2253 4.3064C14.3827 4.48763 14.8111 4.88461 14.9248 4.97954Z" fill="black"/>
<path d="M5.5258 1.13914C6.07662 0.957907 6.58373 0.802567 7.2657 0.742157L5.5258 1.13914Z" fill="black"/>
<path d="M5.52557 1.13921C6.07639 0.95798 6.5835 0.80264 7.26547 0.74223L7.37038 0.69045C6.98568 0.397031 6.60973 0.189911 6.23377 0.189911C5.9977 0.189911 5.51683 0.345251 5.41191 1.18236L5.52557 1.13921Z" fill="black"/>
<path d="M10.448 1.13921C9.89716 0.95798 9.39005 0.80264 8.70808 0.74223L8.60316 0.69045C8.98786 0.397031 9.36382 0.189911 9.73978 0.189911C9.97584 0.189911 10.4567 0.345251 10.5616 1.18236L10.448 1.13921Z" fill="black"/>
<path d="M7.52776 0.664514C7.64142 0.655884 7.90371 0.655884 8.00863 0.655884C8.11355 0.655884 8.40208 0.673144 8.46328 0.673144L7.52776 0.664514Z" fill="black"/>
<path d="M7.36163 0.716289C7.64141 0.18986 7.89497 0 8.03486 0C8.20972 0 8.41956 0.27616 8.57693 0.638619L8.61191 0.716289L8.47202 0.707659C8.37584 0.690399 8.11355 0.690399 8.00863 0.690399C7.90371 0.690399 7.67639 0.690399 7.54524 0.699029L7.36163 0.716289Z" fill="black"/>
<path d="M6.81103 13.2125L6.56622 14.1359L6.10284 13.0227L5.80557 12.945L5.45584 14.2481L5.77059 14.3344L6.02415 13.4024L6.49628 14.5243L6.77606 14.602L7.12579 13.2988L6.81103 13.2125Z" fill="#FFF200"/>
<path d="M7.89503 13.3765L7.53656 13.3592L7.46661 14.7055L7.82508 14.7228L7.89503 13.3765Z" fill="#FFF200"/>
<path d="M8.21861 13.3678L8.24484 13.5404L8.62954 13.4887L8.79566 14.6451L9.14539 14.6019L8.97927 13.4455L9.35522 13.3937L9.32899 13.2125L8.21861 13.3678Z" fill="#FFF200"/>
<path d="M11.9169 12.8156C12.0918 13.1176 12.0568 13.3334 11.7858 13.4887L11.6546 13.5578L11.1563 12.7034L11.2961 12.6257C11.6109 12.4445 11.7945 12.6085 11.9169 12.8156ZM11.2175 12.4617L10.7541 12.7293L11.436 13.903L11.8907 13.6441C12.3716 13.3679 12.4153 12.9623 12.2229 12.6343C12.0043 12.2374 11.6371 12.2287 11.2175 12.4617Z" fill="#FFF200"/>
<path d="M10.3517 14.1187L10.2118 13.7045L10.6228 13.575L10.5616 13.4024L10.1594 13.5319L10.0457 13.1781L10.4566 13.0486L10.4042 12.876L9.64352 13.1176L10.0632 14.4035L10.9025 14.136L10.8413 13.9634L10.3517 14.1187Z" fill="#FFF200"/>
<path d="M5.16719 12.6343L4.765 13.3506C4.6426 13.5663 4.52019 13.7044 4.31036 13.5836C4.10926 13.4714 4.15298 13.3074 4.27538 13.0831L4.67757 12.3581L4.35407 12.1769L3.92566 12.9363C3.68959 13.3592 3.98686 13.6181 4.21418 13.7389C4.45899 13.877 4.8262 13.9719 5.05352 13.5577L5.48194 12.7896L5.16719 12.6343Z" fill="#FFF200"/>
<path d="M4.93129 4.72919V11.0291L7.98266 12.9622L11.034 11.0291V4.73782C10.9378 4.65152 10.7368 4.46166 10.5706 4.36673H5.37719C5.2373 4.46166 4.97501 4.68604 4.93129 4.72919Z" fill="#FFF200"/>
<path d="M4.9922 4.72922V11.0032L7.98236 12.9018L10.9813 11.0032V4.73785H11.1037L11.0949 11.0291V11.0636L11.0687 11.0809L8.01734 13.014L7.98236 13.0399L7.95613 13.014L4.90477 11.0809L4.8698 11.0636V4.72922H4.9922Z" fill="black"/>
<path d="M11.0077 4.78103C10.9815 4.75514 10.999 4.7724 10.9728 4.74651C10.8679 4.65158 10.693 4.49624 10.5531 4.41857L10.6143 4.32364C10.7629 4.40994 10.9378 4.57391 11.0515 4.66884C11.0515 4.66884 11.034 4.66021 11.0864 4.70336L11.0077 4.78103Z" fill="black"/>
<path d="M10.5792 4.42719H5.37697V4.315H10.5792V4.42719Z" fill="black"/>
<path d="M5.4035 4.41857C5.3423 4.46172 5.25486 4.53076 5.17617 4.59117C5.08 4.66884 4.99257 4.73788 4.97508 4.76377L4.88765 4.6861C4.91388 4.66021 5.00131 4.58254 5.09749 4.50487C5.18492 4.43583 5.27235 4.36679 5.33355 4.32364L5.4035 4.41857Z" fill="black"/>
<path d="M8.20131 7.43042C8.18383 7.42179 8.10514 7.4822 8.07016 7.53398C8.03519 7.58576 8.02645 7.6548 8.07016 7.68069C8.12262 7.70658 8.18383 7.67206 8.19257 7.58576C8.21005 7.54261 8.22754 7.43905 8.20131 7.43042ZM7.61552 7.58576C7.62426 7.67206 7.69421 7.70658 7.73792 7.68069C7.79038 7.6548 7.7729 7.58576 7.74667 7.53398C7.71169 7.4822 7.64175 7.42179 7.61552 7.43042C7.59803 7.43905 7.60678 7.54261 7.61552 7.58576ZM7.92153 8.43149C8.02645 8.26752 8.07016 8.09492 8.07016 8.09492H7.7729C7.7729 8.08629 7.82536 8.26752 7.92153 8.43149ZM7.97399 7.18015L8.21006 6.77454L8.39366 7.18015H8.69967C8.51607 7.35275 8.43738 7.61164 8.43738 7.78424V7.9741C8.43738 8.05177 8.39366 8.18122 8.39366 8.18122C8.39366 8.18122 8.65596 8.37971 8.69967 8.41423C8.71716 8.43149 8.73465 8.44012 8.7259 8.47464C8.70842 8.53505 8.52481 8.61272 8.50732 8.62998C8.46361 8.6645 8.45486 8.69039 8.46361 8.72491C8.47235 8.75943 8.50732 8.76806 8.57727 8.74217C8.64721 8.71628 8.7871 8.64724 8.90951 8.59546C9.03191 8.54368 9.18929 8.55231 9.18929 8.55231V8.32793H8.73465V7.59439L8.65596 7.46494L8.85705 7.11111L9.05814 7.46494L8.97945 7.59439V7.9741H9.21552V7.59439L9.13683 7.46494L9.33792 7.11111L9.53902 7.46494L9.46033 7.59439V7.9741H9.69639V7.59439L9.61771 7.46494L9.8188 7.11111L10.0199 7.46494L9.9412 7.59439V8.32793H9.47782V8.6645C9.58273 8.75943 9.67891 8.98381 9.67891 9.11326C9.67891 9.24271 9.59148 9.30312 9.59148 9.30312C9.61771 9.40668 9.61771 9.44983 9.60022 9.54476C9.59148 9.63969 9.46907 9.7864 9.46907 9.7864V11.5297C9.46907 11.6505 9.18929 11.6332 9.18929 11.5383V9.82955C9.03191 9.65695 8.6035 9.5275 8.6035 9.5275C8.44612 9.68284 8.34995 9.95037 8.34995 9.95037C8.41989 9.99352 8.52481 9.95037 8.55978 9.90722C8.6035 9.86407 8.68219 9.84681 8.7259 9.88133C8.76962 9.90722 8.7871 9.92448 8.76962 9.99352C8.75213 10.0626 8.7259 10.1748 8.7259 10.2524C8.7259 10.3301 8.82208 10.3128 8.89202 10.3215C9.03191 10.3301 9.05814 10.4854 9.04066 10.5717C9.03191 10.658 8.9882 10.8393 8.9882 10.9515C8.9882 11.0636 8.99694 11.1758 9.00568 11.2449C9.01443 11.3053 9.04066 11.3743 9.03191 11.452C9.02317 11.5642 8.95322 11.5814 8.88328 11.5124C8.81333 11.4434 7.85159 10.425 7.85159 10.425C7.79038 10.6321 8.05268 10.986 8.14011 11.0895C8.22754 11.2017 8.2188 11.2794 8.14885 11.3484C8.07016 11.4261 7.93027 11.4606 7.90404 11.5297C7.87781 11.5987 7.97399 11.8058 8.17508 12.0647C8.37618 12.3236 7.94776 12.4962 7.68546 12.548C7.42317 12.5998 7.42317 12.4185 7.44066 12.3236C7.45814 12.2287 7.45814 12.1683 7.4494 12.082C7.44066 11.9957 7.36197 11.8749 7.25705 11.7368C7.14339 11.5901 7.14339 11.4606 7.19585 11.1327C7.23956 10.8047 7.23082 10.589 7.23082 10.589C7.23082 10.589 7.11716 10.5976 6.95104 10.589C6.78492 10.5804 6.64503 10.4854 6.63628 10.0885C6.62754 9.69147 6.6188 8.73354 6.58382 8.63861C6.5576 8.54368 6.45268 8.51779 6.40022 8.50916C6.3565 8.50053 6.34776 8.43149 6.40022 8.4056C6.52262 8.34519 6.66251 8.19848 6.61005 8.11218C6.5576 8.01725 6.34776 8.04314 6.19913 8.11218C6.05923 8.18122 5.90186 8.32793 5.86688 8.37108C5.83191 8.41423 5.79694 8.41423 5.80568 8.37108C5.80568 8.32793 5.77945 8.11218 5.76197 8.03451C5.74448 7.95684 5.67453 7.81013 5.64831 7.77561C5.62208 7.74109 5.64831 7.72383 5.68328 7.74109C5.71825 7.75835 5.80568 7.79287 5.88437 7.81013C5.96306 7.83602 6.04175 7.79288 6.07672 7.71521C6.11169 7.63754 6.19038 7.47357 6.22535 7.40453C6.26033 7.33549 6.32153 7.34412 6.37399 7.36138C6.42645 7.37001 6.47016 7.40453 6.51388 7.42179C6.5576 7.43905 6.60131 7.43905 6.61005 7.41316C6.62754 7.38727 6.64503 7.37864 6.67126 7.32686C6.69749 7.26645 6.73246 7.29234 6.73246 7.31823C6.87235 8.13807 7.23082 8.17259 7.23082 8.17259C7.17836 8.31067 7.04721 8.52642 7.02098 8.5782C6.98601 8.62998 6.97727 8.70765 6.96852 8.75943C6.95978 8.81984 6.98601 9.3549 7.02973 9.55339C7.0647 9.75188 7.19585 9.67421 7.23082 9.6138C7.26579 9.55339 7.3882 9.30312 7.3882 9.30312C7.3882 9.30312 7.42317 9.23408 7.42317 9.17367C7.42317 9.11326 7.32699 8.99244 7.30076 8.94929C7.27454 8.91477 7.19585 8.8371 7.19585 8.64724C7.19585 8.45738 7.37071 8.32793 7.43191 8.27615C7.49311 8.22437 7.49311 8.15533 7.48437 8.11218C7.45814 7.96547 7.30076 7.6548 7.22208 7.53398C7.14339 7.41316 6.99475 7.18878 6.99475 7.18878H7.30951L7.5106 6.77454L7.72918 7.18878L7.97399 7.18015ZM9.20678 9.25134V9.01833C9.20678 9.01833 9.14557 8.9234 8.9882 8.9234C8.83082 8.9234 8.74339 8.96655 8.74339 9.0097C8.73465 9.07011 8.87454 9.25134 9.20678 9.25134Z" fill="#E22F22"/>
<path d="M5.16705 6.29987H10.8064V6.67958H5.16705V6.29987Z" fill="#E22F22"/>
<path d="M5.16705 6.11004V4.59979H10.8064V6.11004H5.16705Z" fill="#E22F22"/>
<path d="M9.69633 6.15316V5.89426H9.2854V5.73029H9.61764V4.99674H9.31163L9.20671 4.79825L9.10179 4.99674H8.79578V5.73029H9.13677V5.89426H8.3324V5.73029H8.66464V4.99674H8.35863L8.25371 4.79825L8.14879 4.99674H7.84278V5.73029H8.17502V5.89426H7.3619V5.73029H7.69414V4.99674H7.38813L7.28322 4.79825L7.1783 4.99674H6.87229V5.73029H7.20453V5.89426H6.55753L5.91928 5.74755L6.05043 6.15316H9.69633Z" fill="#FFF200"/>
<path d="M6.13765 5.71307L6.57481 5.81663L6.80213 5.17801V5.01404L6.13765 5.71307Z" fill="#FFF200"/>
<path d="M7.17832 0.70767C6.51384 0.76808 6.09417 0.90616 5.55209 1.08739C5.59581 0.85438 5.64827 0.7163 5.74444 0.58685C5.7357 0.70767 5.83188 0.83712 6.03297 0.83712C6.22532 0.83712 6.33898 0.72493 6.33898 0.65589C6.33898 0.58685 6.29526 0.49192 6.19035 0.49192C6.08543 0.49192 6.0592 0.56959 6.06794 0.59548C6.07668 0.62137 6.05045 0.63 6.02423 0.63863C5.998 0.64726 5.91056 0.60411 5.93679 0.50055C5.97177 0.38836 6.11166 0.31932 6.27778 0.31932C6.28652 0.31932 6.67996 0.30206 7.17832 0.70767Z" fill="#FFF200"/>
<path d="M10.422 1.08737C9.87994 0.906144 9.45153 0.768065 8.77831 0.707655C9.08432 0.491905 9.37284 0.319305 9.68759 0.319305C9.85371 0.319305 9.9936 0.379715 10.0286 0.500535C10.0548 0.604095 9.97612 0.647245 9.94115 0.638615C9.91492 0.629985 9.88869 0.621355 9.89743 0.595465C9.90617 0.569575 9.87994 0.491905 9.77503 0.491905C9.67011 0.491905 9.62639 0.586835 9.62639 0.655875C9.62639 0.724915 9.74005 0.837105 9.9324 0.837105C10.1248 0.837105 10.2297 0.707655 10.2209 0.586835C10.3171 0.724915 10.3783 0.862995 10.422 1.08737Z" fill="#FFF200"/>
<path d="M7.58925 0.586878C7.57176 0.612768 7.55428 0.638657 7.53679 0.664547C7.65045 0.655917 7.904 0.655917 8.00018 0.655917C8.1051 0.655917 8.38488 0.673177 8.44608 0.673177C8.34991 0.448798 8.15756 0.129488 8.02641 0.129488C8.00018 0.129488 7.93898 0.112228 7.83406 0.241678C7.83406 0.241678 7.81657 0.293458 7.88652 0.284828C7.97395 0.267568 8.00892 0.362498 8.00018 0.405648C7.99144 0.500578 7.86903 0.604138 7.75537 0.604138C7.63296 0.604138 7.58925 0.586878 7.58925 0.586878Z" fill="#FFF200"/>
<path d="M1.76625 4.29776L2.20341 3.70229C2.22964 3.5901 2.24713 3.29668 2.10724 3.08093C1.94986 2.84793 1.74877 2.94286 1.68757 2.96875C1.65259 2.98601 1.58265 3.03778 1.53893 3.09819C1.53893 3.09819 1.11926 3.56421 0.647129 4.01297C0.585927 4.07338 0.507238 4.1942 0.498495 4.30639C0.489752 4.40132 0.533468 4.50488 0.585927 4.56529C0.717074 4.70337 0.935654 4.69474 1.04931 4.60844L1.05806 4.97953C1.19795 4.8846 1.61762 4.48762 1.76625 4.29776Z" fill="black"/>
<path d="M7.98257 3.43472C10.4919 3.43472 11.9257 5.76482 12.2405 6.17043C12.7913 6.90398 13.4733 7.49082 14.2602 7.30096C15.4143 7.00754 15.3531 5.32469 15.3531 5.32469C15.0733 5.1262 14.6011 4.87593 13.7356 3.66773C12.8875 2.4768 10.964 0.716278 7.98257 0.716278C5.00115 0.716278 3.07765 2.4768 2.22956 3.66773C1.36399 4.87593 0.891855 5.11757 0.612074 5.31606C0.612074 5.31606 0.550872 7.00754 1.70497 7.29233C2.49186 7.49082 3.17382 6.89535 3.72464 6.1618C4.0394 5.76482 5.47328 3.43472 7.98257 3.43472Z" fill="#FFF200"/>
<path d="M7.98242 3.37433C10.3168 3.37433 11.7245 5.35923 12.1879 5.99785C12.2316 6.05826 12.2666 6.10141 12.2841 6.13593C12.5551 6.49839 12.8611 6.82633 13.1933 7.03345C13.5168 7.24057 13.8666 7.3355 14.2425 7.24057C15.2655 6.98167 15.2917 5.55772 15.2917 5.34197C15.2655 5.32471 15.248 5.30745 15.2218 5.29019C14.9332 5.0917 14.4611 4.77239 13.683 3.68501C13.1933 3.00324 12.354 2.13161 11.1562 1.51888C10.2819 1.07012 9.22395 0.759444 7.98242 0.759444C6.74089 0.768074 5.68297 1.07875 4.80865 1.52751C3.61084 2.14024 2.77149 3.01187 2.28188 3.69364C1.50373 4.78102 1.0316 5.10033 0.743077 5.29882C0.716848 5.31608 0.690618 5.33334 0.673132 5.3506C0.673132 5.56635 0.699362 6.9903 1.72231 7.2492C2.09827 7.34413 2.448 7.2492 2.77149 7.04208C3.10373 6.83496 3.40974 6.50702 3.68078 6.14456C3.70701 6.11867 3.73324 6.06689 3.77696 6.00648C4.24035 5.35923 5.648 3.37433 7.98242 3.37433ZM7.98242 3.49515C5.7092 3.49515 4.31903 5.4369 3.87313 6.07552C3.82942 6.1273 3.80319 6.17908 3.77696 6.2136C3.49718 6.58469 3.18242 6.92126 2.84144 7.13701C2.49171 7.36139 2.10701 7.46495 1.69608 7.36139C0.498269 7.05934 0.559471 5.33334 0.559471 5.32471V5.29882L0.5857 5.28156C0.620673 5.25567 0.646903 5.23841 0.681875 5.21252C0.961657 5.01403 1.4163 4.70335 2.1857 3.6246C2.68406 2.9342 3.54089 2.04531 4.75619 1.42395C5.63925 0.966563 6.72341 0.655884 7.98242 0.655884C9.24144 0.655884 10.3256 0.975193 11.2087 1.42395C12.4327 2.04531 13.2895 2.9342 13.7879 3.6246C14.5573 4.69472 15.0119 5.0054 15.2917 5.20389C15.3267 5.22978 15.3617 5.24704 15.3879 5.27293L15.4141 5.29019V5.31608C15.4141 5.32471 15.4753 7.05071 14.2775 7.35276C13.8666 7.45632 13.4819 7.35276 13.1321 7.12838C12.7912 6.91263 12.4764 6.57606 12.1966 6.20497C12.1704 6.17045 12.1354 6.11867 12.1005 6.06689C11.6458 5.4369 10.2644 3.49515 7.98242 3.49515Z" fill="black"/>
<path d="M7.98262 3.21898C10.4045 3.21898 11.8471 5.24703 12.3192 5.91154C12.3542 5.96332 12.3892 6.0151 12.4154 6.04099C13.0537 6.88673 13.6394 7.2233 14.199 7.08522C15.0121 6.8781 15.1083 5.78209 15.1258 5.44552V5.43689L15.117 5.42826C14.8285 5.22977 14.3564 4.91046 13.552 3.78856C13.0711 3.11542 11.2613 0.932037 7.98262 0.932037C4.70393 0.932037 2.89409 3.11542 2.41322 3.78856C1.61759 4.90183 1.11923 5.2384 0.84819 5.42826L0.839447 5.43689V5.44552C0.84819 5.78209 0.953108 6.88673 1.75748 7.09385C2.31704 7.23193 2.90283 6.89536 3.54109 6.04962C3.56732 6.0151 3.59354 5.97195 3.63726 5.92017C4.11813 5.24703 5.56076 3.21898 7.98262 3.21898Z" fill="#E22F22"/>
<path d="M2.77159 4.15103L2.51804 4.44445L2.99017 5.41101L1.97596 5.08307L1.75739 5.34197L2.80657 6.20497L2.96394 6.02374L2.22077 5.41101L3.20875 5.73032L3.31367 5.60087L2.84154 4.66883L3.58471 5.28156L3.82077 5.01403L2.77159 4.15103Z" fill="#FFF200"/>
<path d="M4.09174 3.94394L3.85567 4.19421L3.61087 3.72819L4.09174 3.94394ZM3.54092 3.33984L3.30486 3.59011L3.96059 4.87598L4.11797 4.70338L3.94311 4.36681L4.25786 4.03024L4.61633 4.17695L4.87863 3.90079L3.54092 3.33984Z" fill="#FFF200"/>
<path d="M5.13231 2.11432L5.64816 2.92554L4.51155 2.50267L4.258 2.65801L4.97494 3.8058L5.25472 3.6332L4.73887 2.82198L5.89297 3.24485L6.13778 3.08951L5.41209 1.95035L5.13231 2.11432Z" fill="#FFF200"/>
<path d="M9.4512 2.77887L9.59109 2.36463L9.99328 2.50271L10.0545 2.33011L9.65229 2.20066L9.7747 1.84683L10.1856 1.98491L10.2468 1.82094L9.49491 1.56204L9.04901 2.83065L9.87961 3.11544L9.94082 2.94284L9.4512 2.77887Z" fill="#FFF200"/>
<path d="M11.7859 2.69254L11.6635 2.82199L11.952 3.08089L11.1564 3.94388L11.4274 4.18552L12.2143 3.3139L12.4941 3.56416L12.6165 3.43471L11.7859 2.69254Z" fill="#FFF200"/>
<path d="M12.179 4.71194L12.5113 4.43578L12.7823 4.75509L12.9222 4.6429L12.6512 4.31496L12.9397 4.08195L13.2195 4.40989L13.3594 4.2977L12.8523 3.6936L11.8031 4.5566L12.3714 5.22111L12.5113 5.10892L12.179 4.71194Z" fill="#FFF200"/>
<path d="M13.7532 5.05717C13.8493 5.16073 13.8493 5.28155 13.7357 5.38511C13.6308 5.48004 13.4909 5.46278 13.386 5.35059L13.3248 5.28155L13.6657 4.9795L13.7532 5.05717ZM13.5783 5.72168C13.5783 5.72168 13.7881 5.82524 14.0155 5.61812C14.2078 5.44552 14.1466 5.21251 13.9455 4.98813L13.5783 4.58252L12.5641 5.48004L12.8002 5.73894L13.2024 5.38511L13.3248 5.51456L13.0712 6.08414L13.3772 6.32578L13.5783 5.72168Z" fill="#FFF200"/>
<path d="M8.44579 1.44985L8.43705 2.00217L7.90371 1.98491L7.91246 1.44122L7.55399 1.43259L7.52776 2.77886L7.88623 2.78749L7.89497 2.16614L8.43705 2.17477L8.41956 2.79612H8.77803L8.80426 1.45848L8.44579 1.44985Z" fill="#FFF200"/>
<path d="M10.387 3.452C10.6405 3.59871 10.9203 3.58145 11.0515 3.3657C11.1476 3.21899 11.1476 3.09817 11.034 2.87379C11.0078 2.81338 10.964 2.7616 10.9378 2.70982C10.8853 2.61489 10.8416 2.53722 10.8853 2.46818C10.9291 2.39051 11.0427 2.38188 11.1389 2.44229C11.2438 2.5027 11.2875 2.60626 11.305 2.6753L11.4711 2.60626C11.4187 2.47681 11.3487 2.35599 11.1739 2.25243C10.8853 2.07983 10.6405 2.12298 10.5444 2.28695C10.4482 2.45092 10.4744 2.589 10.5444 2.72708C10.5444 2.72708 10.5881 2.80475 10.6231 2.85653C10.6843 2.96872 10.7629 3.09817 10.7105 3.1931C10.6493 3.29666 10.5356 3.32255 10.422 3.25351C10.2821 3.16721 10.2471 3.06365 10.2209 2.96872L10.0373 3.04639C10.0897 3.18447 10.1859 3.33118 10.387 3.452Z" fill="#FFF200"/>
<path d="M6.67105 1.51883C6.22515 1.61376 5.92788 1.93306 6.0328 2.37319C6.08526 2.6062 6.30384 3.04633 6.97706 2.90825C7.16067 2.87373 7.26559 2.79606 7.36176 2.70976L7.23936 2.57168C7.19564 2.62346 7.1257 2.70113 6.96832 2.72702C6.64482 2.79606 6.44373 2.53716 6.40001 2.30415C6.33007 1.96758 6.52242 1.73457 6.74974 1.69143C6.90712 1.65691 7.00329 1.70005 7.0645 1.72594L7.10821 1.55335C6.99455 1.50157 6.87215 1.47568 6.67105 1.51883Z" fill="#FFF200"/>
<path d="M13.9017 3.75406C13.8842 3.67639 13.858 3.33119 13.9891 3.14996C14.1115 2.98599 14.2164 3.03777 14.2776 3.06366C14.3039 3.07229 14.3826 3.12407 14.4 3.22763C14.4088 3.27941 14.3913 3.36571 14.3476 3.41749C14.2601 3.52105 14.0765 3.59872 14.0765 3.59872C14.0765 3.59872 14.3213 4.06474 14.8285 4.53076V4.85007C14.129 4.18556 13.9017 3.75406 13.9017 3.75406Z" fill="#FFF200"/>
<path d="M14.2514 3.65911C14.3214 3.77993 14.4963 4.06472 14.9422 4.47033C15.0121 4.53937 15.1957 4.59115 15.3006 4.47896C15.3443 4.43581 15.3618 4.3754 15.3618 4.29773C15.3531 4.21143 15.3006 4.1165 15.2569 4.07335C15.1695 3.99568 14.7935 3.62459 14.5137 3.32254C14.505 3.37432 14.4613 3.46925 14.4613 3.46925C14.4176 3.52966 14.3739 3.5987 14.2514 3.65911Z" fill="#FFF200"/>
<path d="M1.18028 4.83278V4.53073C1.69613 4.06471 1.93219 3.59869 1.93219 3.59869C1.93219 3.59869 1.73985 3.53828 1.66116 3.42609C1.61744 3.36568 1.59995 3.28801 1.6087 3.23623C1.62618 3.13267 1.70487 3.08089 1.7311 3.07226C1.7923 3.04637 1.89722 2.98596 2.01963 3.15856C2.15077 3.33979 2.1158 3.67636 2.09832 3.75403C2.09832 3.75403 1.86225 4.16827 1.18028 4.83278Z" fill="#FFF200"/>
<path d="M1.74875 3.65915C1.6788 3.77997 1.50394 4.06476 1.05804 4.47037C0.988093 4.53941 0.804487 4.59982 0.699569 4.48763C0.655853 4.44448 0.638367 4.38407 0.638367 4.3064C0.64711 4.2201 0.690826 4.12517 0.743285 4.08202C0.830716 4.00435 1.20667 3.63326 1.48645 3.33121C1.4952 3.38299 1.53891 3.47792 1.53891 3.47792C1.57389 3.5297 1.6176 3.59874 1.74875 3.65915Z" fill="#FFF200"/>
<path d="M0.323471 8.69902C0.323471 8.07766 0.830575 7.57712 1.46008 7.57712C2.08959 7.57712 2.59669 8.07766 2.59669 8.69902C2.59669 9.32038 2.08959 9.82091 1.46008 9.82091C0.830575 9.82091 0.323471 9.32038 0.323471 8.69902Z" fill="#E22F22"/>
<path d="M2.0632 7.88785C2.08068 7.90511 2.13314 7.93963 2.13314 7.93963C2.22932 8.02593 2.31675 8.12949 2.36921 8.25031C2.43041 8.40565 2.23806 8.63003 2.17686 8.69044C1.91456 8.93208 1.74844 8.93208 1.65227 8.94071C1.55609 8.95797 1.49489 8.89756 1.50363 8.82852C1.51238 8.6214 1.66101 8.26757 1.69598 8.20716C1.72221 8.16401 1.76593 8.13812 1.76593 8.13812C1.8621 8.11223 1.95828 8.06908 2.01074 8.0173C2.0632 7.96552 2.0632 7.88785 2.0632 7.88785ZM1.11893 7.74114C1.22385 7.70662 1.33751 7.68936 1.45117 7.68936C1.62604 7.68936 1.8009 7.72388 1.94079 7.81018C1.97576 7.83607 1.98451 7.86196 1.98451 7.90511C1.98451 8.03456 1.77467 8.07771 1.63478 8.07771C1.49489 8.07771 1.32003 8.02593 1.19762 7.98278C1.07522 7.94826 1.04899 7.87059 1.04899 7.8447C1.05773 7.81881 1.07522 7.74977 1.11893 7.74114ZM0.664288 9.35495C0.524397 9.21687 0.419479 8.9666 0.419479 8.69907C0.419479 8.59551 0.436966 8.50058 0.463195 8.40565C0.463195 8.40565 0.489425 8.3625 0.506911 8.39702C0.524397 8.42291 0.541884 8.4488 0.568113 8.48332C0.5856 8.51784 0.699261 8.60414 0.690518 8.66455C0.655545 8.91482 0.690518 9.24276 0.699261 9.29454C0.716747 9.36358 0.699261 9.38947 0.664288 9.35495ZM0.699261 8.50921C0.646802 8.48332 0.5856 8.35387 0.568113 8.31935C0.550627 8.29346 0.550627 8.21579 0.576856 8.18127C0.664288 8.03456 0.777949 7.90511 0.935326 7.83607C0.952813 7.82744 0.979042 7.82744 0.979042 7.87059C0.979042 7.89648 0.987786 7.931 0.987786 7.95689C0.987786 7.98278 0.996529 8.02593 0.970299 8.06908C0.935327 8.1036 0.804179 8.34524 0.769206 8.48332C0.75172 8.50058 0.742977 8.5351 0.699261 8.50921ZM1.4774 9.71741C1.46866 9.71741 1.45992 9.71741 1.45117 9.71741C1.25882 9.71741 1.05773 9.64837 0.935326 9.57933C0.804179 9.51029 0.760463 9.19098 0.760463 9.02701C0.760463 8.50058 0.979042 8.18127 1.01402 8.12086C1.04899 8.06045 1.12768 8.05182 1.18888 8.06908C1.25008 8.08634 1.26757 8.09497 1.33751 8.11223C1.37249 8.12086 1.45117 8.13812 1.50363 8.14675C1.55609 8.15538 1.61729 8.17264 1.58232 8.26757C1.54735 8.37113 1.42494 8.61277 1.4162 8.89756C1.40746 9.15646 1.44243 9.41536 1.50363 9.5707C1.52986 9.68289 1.52986 9.71741 1.4774 9.71741ZM1.7397 9.67426C1.6785 9.69152 1.65227 9.64837 1.62604 9.62248C1.52112 9.50166 1.49489 9.18235 1.49489 9.1392C1.49489 9.09605 1.51238 9.0529 1.53861 9.0529C1.79216 9.04427 1.97576 8.97523 2.14188 8.83715C2.308 8.69907 2.37795 8.54373 2.39544 8.51784C2.41292 8.49195 2.4479 8.49195 2.4479 8.5351C2.45664 8.56962 2.46538 8.63866 2.46538 8.69907C2.48287 9.16509 2.16811 9.54481 1.7397 9.67426Z" fill="#FFF200"/>
<path d="M15.6941 8.69902C15.6941 8.07766 15.187 7.57712 14.5575 7.57712C13.928 7.57712 13.4209 8.07766 13.4209 8.69902C13.4209 9.32038 13.928 9.82091 14.5575 9.82091C15.187 9.82091 15.6941 9.32038 15.6941 8.69902Z" fill="#E22F22"/>
<path d="M13.9978 8.0173C14.0502 8.06908 14.1377 8.11223 14.2426 8.13812C14.2426 8.13812 14.2863 8.16401 14.3213 8.20716C14.365 8.26757 14.5136 8.6214 14.5136 8.82852C14.5136 8.89756 14.4524 8.95797 14.365 8.94071C14.2688 8.92345 14.1027 8.93208 13.8404 8.69044C13.7792 8.63866 13.5781 8.40565 13.6481 8.25031C13.7005 8.12949 13.7879 8.02593 13.8841 7.93963C13.8841 7.93963 13.9366 7.89648 13.9541 7.88785C13.9453 7.88785 13.9453 7.96552 13.9978 8.0173ZM14.9595 7.8447C14.9595 7.87922 14.9333 7.94826 14.8109 7.98278C14.6885 8.0173 14.5136 8.07771 14.3737 8.07771C14.2338 8.07771 14.024 8.03456 14.024 7.90511C14.024 7.86196 14.0328 7.83607 14.0677 7.81018C14.2076 7.72388 14.3825 7.68936 14.5573 7.68936C14.671 7.68936 14.7847 7.70662 14.8896 7.74114C14.9333 7.74977 14.9595 7.81881 14.9595 7.8447ZM15.3093 9.30317C15.318 9.25139 15.353 8.91482 15.318 8.67318C15.3093 8.60414 15.4229 8.52647 15.4404 8.49195C15.4579 8.45743 15.4841 8.43154 15.5016 8.40565C15.5278 8.37113 15.5453 8.41428 15.5453 8.41428C15.5715 8.50921 15.589 8.60414 15.589 8.7077C15.589 8.97523 15.4841 9.2255 15.3442 9.36358C15.318 9.38947 15.3005 9.36358 15.3093 9.30317ZM15.2568 8.47469C15.2218 8.33661 15.0819 8.1036 15.0557 8.06045C15.0207 8.02593 15.0382 7.97415 15.0382 7.94826C15.0382 7.92237 15.047 7.88785 15.047 7.86196C15.047 7.81881 15.0732 7.81881 15.0907 7.82744C15.2481 7.89648 15.3617 8.03456 15.4491 8.17264C15.4666 8.20716 15.4666 8.28483 15.4579 8.31072C15.4404 8.34524 15.3792 8.47469 15.3267 8.50058C15.2655 8.5351 15.2568 8.50058 15.2568 8.47469ZM14.5224 9.57933C14.5836 9.42399 14.6185 9.16509 14.6011 8.90619C14.5923 8.6214 14.4699 8.37976 14.4349 8.2762C14.4 8.17264 14.4612 8.16401 14.5136 8.15538C14.5661 8.14675 14.6448 8.12949 14.6797 8.12086C14.7497 8.1036 14.7672 8.08634 14.8284 8.07771C14.8896 8.06045 14.9683 8.06908 15.0032 8.12949C15.0382 8.1899 15.2568 8.50921 15.2568 9.03564C15.2568 9.19961 15.2131 9.51892 15.0819 9.58796C14.9595 9.657 14.7497 9.72604 14.5661 9.72604C14.5573 9.72604 14.5486 9.72604 14.5486 9.72604C14.4787 9.71741 14.4787 9.68289 14.5224 9.57933ZM13.5344 8.69907C13.5344 8.63003 13.5519 8.56962 13.5519 8.5351C13.5606 8.49195 13.5956 8.48332 13.6043 8.51784C13.6218 8.54373 13.6918 8.69907 13.8579 8.83715C14.024 8.97523 14.2076 9.04427 14.4612 9.0529C14.4874 9.0529 14.5049 9.09605 14.5049 9.1392C14.5049 9.18235 14.4787 9.50166 14.3737 9.62248C14.3475 9.657 14.3213 9.69152 14.2601 9.67426C13.8491 9.54481 13.5344 9.16509 13.5344 8.69907Z" fill="#FFF200"/>
<path d="M13.4295 8.69902C13.4295 8.38834 13.5606 8.10355 13.7617 7.90506C13.9715 7.69794 14.2513 7.57712 14.5661 7.57712C14.8808 7.57712 15.1694 7.70657 15.3704 7.90506C15.5803 8.11218 15.7027 8.38834 15.7027 8.69902C15.7027 9.0097 15.5715 9.29449 15.3704 9.49297C15.1606 9.70009 14.8808 9.82091 14.5661 9.82091C14.2513 9.82091 13.9628 9.69146 13.7617 9.49297C13.5519 9.28586 13.4295 9.0097 13.4295 8.69902ZM13.4382 8.69902C13.4382 9.0097 13.5606 9.28586 13.7704 9.48435C13.9715 9.68283 14.2601 9.81228 14.5661 9.81228C14.8721 9.81228 15.1606 9.69146 15.3617 9.48435C15.5628 9.28586 15.6939 9.00107 15.6939 8.69902C15.6939 8.38834 15.5715 8.11218 15.3617 7.91369C15.1606 7.7152 14.8721 7.58575 14.5661 7.58575C14.2513 7.58575 13.9715 7.70657 13.7704 7.91369C13.5693 8.11218 13.4382 8.38834 13.4382 8.69902Z" fill="#FFE600"/>
</g>
<defs>
<clipPath id="clip0">
<rect width="16" height="16" fill="white"/>
</clipPath>
</defs>
</svg>
