<svg width="19" height="25" viewBox="0 0 19 25" fill="none" xmlns="http://www.w3.org/2000/svg">
<path fill-rule="evenodd" clip-rule="evenodd" d="M5.076 4.64852C7.81421 3.12443 10.623 2.92734 13.2129 3.63839C13.3241 2.74748 13.3872 1.97053 13.8781 0.898909C13.2275 1.37508 12.8105 1.91465 12.3319 2.49776L12.1706 0.0128528L10.0933 2.33711L8.6713 0L7.79672 2.61368L5.25445 0.80672L5.68229 3.32048C5.09868 2.83269 4.44762 2.34487 3.79443 2.0734C4.29625 2.73918 4.78458 3.65902 5.076 4.64852Z" fill="white"/>
<path fill-rule="evenodd" clip-rule="evenodd" d="M15.6709 5.70182C14.9465 5.09583 14.2188 4.56686 12.6198 4.17073C12.7645 4.48927 12.8842 4.89331 12.8827 5.31442C12.47 4.87169 11.9693 4.32215 11.3575 3.9958C9.3373 3.72937 7.25954 4.23979 5.63192 5.06543C6.32199 5.14613 6.86574 5.68693 7.04912 6.28383C5.10008 4.91542 3.98105 6.88861 5.10969 8.85381C3.89696 8.27156 3.84043 6.85266 4.20998 5.9199C3.29951 6.61587 1.90805 7.95798 1.04093 9.77594L2.15388 9.93407C0.808838 11.5272 0.131445 13.8222 0 15.1711L1.81088 14.5801C1.23755 16.6709 1.69661 19.9251 2.42792 21.1132C3.55812 20.218 4.46467 19.0978 5.40272 17.6761C5.99733 19.5672 5.89039 21.5346 5.42782 23.5407C8.06905 25.0459 11.3563 24.436 13.5104 22.8011C13.6021 23.1884 13.6646 23.37 13.8444 24.2117C16.4586 22.3886 17.3453 20.1582 17.5992 17.9956L18.4495 18.9417C19.5878 15.2402 18.9097 12.2322 16.8875 9.31857L16.8039 9.99812C16.569 9.7015 16.1843 9.34048 16.005 9.11375C15.9769 9.07822 15.9839 9.05807 15.9655 9.0292C16.0612 8.97042 16.2383 8.88686 16.2848 8.75992C16.2656 8.58325 16.0622 8.12759 15.9119 8.04278C15.5373 8.07811 15.2367 8.40798 15.2342 8.52886C15.0395 8.34367 14.8556 8.13882 14.288 7.92802C14.5427 8.18752 14.7874 8.58589 14.9672 8.93962C15.3406 9.2154 15.9656 9.74413 16.4316 10.2261L16.3418 10.3173C15.8307 9.91387 14.4617 9.94819 13.7086 10.331C13.342 9.88863 12.9174 9.39729 12.3226 8.85533C12.1779 8.60619 12.1645 8.16095 12.6255 7.77596C12.1164 7.82161 11.9045 8.04331 11.6647 8.24845C11.3084 7.97791 10.8423 7.69675 10.0866 7.48042C9.49447 7.60148 8.78004 7.98354 8.50476 8.31831C9.19567 8.69043 9.40656 8.80284 9.826 8.83257C10.4416 8.8762 10.9772 8.73553 11.3705 8.9889C11.8586 9.42573 12.773 10.2433 12.9027 10.6148C12.1125 10.1588 10.9289 10.3998 9.61324 10.3307C8.36915 10.1809 7.68356 9.25398 7.67058 8.50753L6.78637 8.3671C7.28373 7.6795 7.91346 7.37364 8.37835 7.20966L7.89289 6.80509C8.67041 6.1319 9.87972 5.59213 11.1105 5.48482C11.9636 5.90964 12.6946 6.37488 13.196 6.7911C13.4225 6.41003 13.4556 5.99584 13.4835 5.72452C14.456 6.17533 15.5421 6.94797 16.3365 7.76177C16.018 7.17662 15.7764 6.50151 15.6709 5.70182V5.70182ZM11.871 14.8676C11.4978 14.147 11.1325 13.331 10.704 12.6451C11.5324 12.0475 12.3162 11.4281 13.6593 11.0822C13.943 11.3193 14.3604 11.6037 14.956 11.8218L14.9552 13.2463C14.1106 13.8289 13.2665 14.7782 11.871 14.8676ZM14.6835 14.6057L15.7063 14.6024C15.8794 14.7663 16.2404 15.3224 16.2663 15.7557C16.1859 16.3703 15.7125 17.5004 14.8804 17.9318C14.9068 17.4085 14.8471 16.7311 14.7426 16.354C14.2678 16.8924 13.4949 17.1347 13.0965 17.2238C12.9309 16.7792 12.6593 16.2882 12.3945 15.886C13.107 15.7371 14.0085 15.2104 14.6835 14.6057ZM16.6796 11.1391C17.353 12.5762 17.2082 13.9543 16.7354 14.6605C16.5052 14.13 16.0632 13.5991 15.6882 13.2649L15.7035 11.8694C16.1297 11.6385 16.4202 11.3961 16.6796 11.1391Z" fill="white"/>
</svg>
