<svg width="18" height="18" viewBox="0 0 18 18" fill="none" xmlns="http://www.w3.org/2000/svg">
<circle cx="9" cy="9" r="9" fill="#15BE65"/>
<path d="M5.776 13L4.216 5.152H5.644L6.328 9.112C6.392 9.536 6.456 9.956 6.52 10.372C6.584 10.788 6.648 11.204 6.712 11.62H6.76C6.848 11.204 6.932 10.788 7.012 10.372C7.1 9.948 7.188 9.528 7.276 9.112L8.236 5.152H9.448L10.408 9.112C10.496 9.52 10.584 9.936 10.672 10.36C10.76 10.776 10.848 11.196 10.936 11.62H10.984C11.048 11.196 11.108 10.776 11.164 10.36C11.228 9.944 11.292 9.528 11.356 9.112L12.04 5.152H13.372L11.872 13H10.144L9.172 8.872C9.108 8.568 9.044 8.268 8.98 7.972C8.924 7.668 8.872 7.364 8.824 7.06H8.776C8.72 7.364 8.66 7.668 8.596 7.972C8.54 8.268 8.48 8.568 8.416 8.872L7.468 13H5.776Z" fill="white"/>
</svg>
